<svg width="912" height="418" viewBox="0 0 912 418" fill="none" xmlns="http://www.w3.org/2000/svg">
<g opacity="0.8" clip-path="url(#clip0_30_19)">
<rect opacity="0.4" x="912.001" y="418.001" width="912" height="535.456" transform="rotate(-180 912.001 418.001)" fill="url(#paint0_radial_30_19)"/>
<mask id="mask0_30_19" style="mask-type:alpha" maskUnits="userSpaceOnUse" x="67" y="-176" width="778" height="653">
<rect x="844.314" y="476.416" width="776.625" height="651.808" transform="rotate(-180 844.314 476.416)" fill="url(#paint1_radial_30_19)"/>
</mask>
<g mask="url(#mask0_30_19)">
</g>
<g opacity="0.7">
<path d="M626.448 2.78019C626.084 3.01637 625.981 3.50284 626.217 3.86677C626.453 4.2307 626.939 4.3343 627.302 4.09812C627.666 3.86195 627.769 3.37543 627.533 3.0115C627.297 2.64756 626.811 2.54401 626.448 2.78019Z" fill="white"/>
<path d="M535.495 31.2848C535.253 31.4421 535.184 31.7663 535.341 32.0088C535.498 32.2513 535.822 32.3202 536.064 32.1629C536.307 32.0055 536.375 31.6814 536.218 31.4389C536.061 31.1964 535.737 31.1274 535.495 31.2848Z" fill="white"/>
<path d="M503.05 86.0779C502.808 86.2352 502.739 86.5594 502.897 86.8018C503.054 87.0443 503.377 87.1133 503.62 86.956C503.862 86.7986 503.931 86.4745 503.774 86.232C503.616 85.9895 503.293 85.9205 503.05 86.0779Z" fill="white"/>
<path d="M465.15 65.1299C464.908 65.2872 464.839 65.6114 464.996 65.8539C465.153 66.0963 465.477 66.1653 465.719 66.008C465.962 65.8506 466.031 65.5265 465.873 65.284C465.716 65.0415 465.392 64.9725 465.15 65.1299Z" fill="white"/>
<path opacity="0.11" d="M540.38 11.8832C540.138 12.0406 540.069 12.3647 540.227 12.6072C540.384 12.8497 540.707 12.9187 540.95 12.7614C541.192 12.604 541.261 12.2799 541.104 12.0374C540.946 11.7949 540.623 11.7259 540.38 11.8832Z" fill="white"/>
<path d="M618.769 43.3547C618.527 43.5121 618.458 43.8362 618.615 44.0787C618.772 44.3212 619.096 44.3902 619.338 44.2328C619.58 44.0755 619.649 43.7513 619.492 43.5088C619.335 43.2663 619.011 43.1973 618.769 43.3547Z" fill="white"/>
<path opacity="0.3" d="M486.532 96.1841C486.29 96.3414 486.221 96.6656 486.378 96.908C486.536 97.1505 486.859 97.2195 487.101 97.0622C487.344 96.9048 487.413 96.5807 487.255 96.3382C487.098 96.0957 486.774 96.0267 486.532 96.1841Z" fill="white"/>
<path opacity="0.11" d="M568.845 68.3013C568.603 68.4587 568.534 68.7828 568.691 69.0253C568.849 69.2678 569.172 69.3368 569.414 69.1794C569.657 69.0221 569.726 68.6979 569.568 68.4554C569.411 68.213 569.087 68.144 568.845 68.3013Z" fill="white"/>
<path opacity="0.11" d="M486.135 69.6021C485.893 69.7594 485.824 70.0836 485.981 70.3261C486.138 70.5685 486.462 70.6375 486.704 70.4802C486.946 70.3228 487.015 69.9987 486.858 69.7562C486.701 69.5137 486.377 69.4447 486.135 69.6021Z" fill="white"/>
<path opacity="0.11" d="M577.229 23.5216C576.745 23.8366 576.607 24.4854 576.921 24.9708C577.236 25.4562 577.884 25.5943 578.369 25.2793C578.854 24.9643 578.992 24.3155 578.677 23.8301C578.362 23.3447 577.714 23.2066 577.229 23.5216Z" fill="white"/>
<path d="M587.413 38.7532C587.05 38.9893 586.946 39.4758 587.182 39.8398C587.418 40.2037 587.904 40.3073 588.268 40.0711C588.631 39.8349 588.735 39.3484 588.499 38.9845C588.263 38.6206 587.777 38.517 587.413 38.7532Z" fill="white"/>
<path d="M436.431 58.8176C436.067 59.0538 435.964 59.5403 436.2 59.9042C436.436 60.2682 436.922 60.3717 437.285 60.1356C437.649 59.8994 437.752 59.4129 437.516 59.049C437.28 58.685 436.794 58.5815 436.431 58.8176Z" fill="white"/>
<path d="M602.776 16.2858C602.412 16.522 602.309 17.0085 602.545 17.3724C602.781 17.7363 603.267 17.8399 603.63 17.6037C603.994 17.3676 604.097 16.881 603.861 16.5171C603.625 16.1532 603.139 16.0496 602.776 16.2858Z" fill="white"/>
<path d="M438.338 92.5383C437.975 92.7744 437.871 93.2609 438.107 93.6249C438.343 93.9888 438.829 94.0924 439.193 93.8562C439.556 93.62 439.66 93.1335 439.424 92.7696C439.188 92.4057 438.702 92.3021 438.338 92.5383Z" fill="white"/>
<path d="M443.466 123.539C443.103 123.775 442.999 124.262 443.235 124.626C443.471 124.99 443.957 125.093 444.32 124.857C444.684 124.621 444.787 124.134 444.551 123.771C444.315 123.407 443.83 123.303 443.466 123.539Z" fill="white"/>
<path opacity="0.3" d="M550.929 61.8326C550.444 62.1476 550.306 62.7965 550.621 63.2819C550.936 63.7672 551.584 63.9054 552.069 63.5904C552.553 63.2754 552.691 62.6265 552.377 62.1412C552.062 61.6558 551.414 61.5177 550.929 61.8326Z" fill="white"/>
<path d="M571.149 93.0197C570.664 93.3347 570.526 93.9835 570.841 94.4689C571.155 94.9543 571.803 95.0924 572.288 94.7774C572.773 94.4624 572.911 93.8136 572.596 93.3282C572.282 92.8428 571.634 92.7047 571.149 93.0197Z" fill="white"/>
<path d="M522.07 66.8498C521.707 67.086 521.603 67.5725 521.839 67.9364C522.075 68.3003 522.561 68.4039 522.925 68.1677C523.288 67.9315 523.392 67.445 523.156 67.0811C522.92 66.7172 522.434 66.6136 522.07 66.8498Z" fill="white"/>
<path opacity="0.3" d="M511.895 97.8072C511.41 98.1222 511.272 98.771 511.586 99.2564C511.901 99.7418 512.549 99.8799 513.034 99.5649C513.519 99.2499 513.657 98.6011 513.342 98.1157C513.028 97.6303 512.379 97.4922 511.895 97.8072Z" fill="white"/>
<path opacity="0.3" d="M448.242 94.8402C447.757 95.1552 447.619 95.804 447.934 96.2894C448.248 96.7748 448.896 96.9129 449.381 96.5979C449.866 96.2829 450.004 95.6341 449.689 95.1487C449.375 94.6633 448.727 94.5252 448.242 94.8402Z" fill="white"/>
<path opacity="0.3" d="M499.008 60.6103C498.524 60.9253 498.386 61.5741 498.7 62.0595C499.015 62.5448 499.663 62.683 500.148 62.368C500.633 62.053 500.771 61.4041 500.456 60.9188C500.141 60.4334 499.493 60.2953 499.008 60.6103Z" fill="white"/>
<path opacity="0.11" d="M474.774 96.3302C474.289 96.6452 474.151 97.294 474.465 97.7794C474.78 98.2648 475.428 98.4029 475.913 98.0879C476.398 97.7729 476.536 97.1241 476.221 96.6387C475.906 96.1533 475.258 96.0152 474.774 96.3302Z" fill="white"/>
<path opacity="0.11" d="M576.152 219.853C575.667 220.168 575.529 220.817 575.843 221.302C576.158 221.787 576.806 221.926 577.291 221.611C577.776 221.296 577.914 220.647 577.599 220.161C577.284 219.676 576.636 219.538 576.152 219.853Z" fill="white"/>
<path d="M570.171 216.872C569.807 217.109 569.704 217.595 569.94 217.959C570.176 218.323 570.662 218.426 571.025 218.19C571.389 217.954 571.492 217.468 571.256 217.104C571.02 216.74 570.534 216.636 570.171 216.872Z" fill="white"/>
<path d="M561.668 235.503C561.305 235.739 561.201 236.226 561.437 236.59C561.673 236.954 562.159 237.057 562.522 236.821C562.886 236.585 562.989 236.098 562.754 235.735C562.518 235.371 562.032 235.267 561.668 235.503Z" fill="white"/>
<path d="M599.534 212.153C599.171 212.389 599.068 212.875 599.303 213.239C599.539 213.603 600.025 213.707 600.389 213.471C600.752 213.235 600.856 212.748 600.62 212.384C600.384 212.02 599.898 211.917 599.534 212.153Z" fill="white"/>
<path opacity="0.11" d="M614.421 187.499C613.936 187.814 613.798 188.463 614.113 188.949C614.427 189.434 615.076 189.572 615.56 189.257C616.045 188.942 616.183 188.293 615.868 187.808C615.554 187.323 614.906 187.184 614.421 187.499Z" fill="white"/>
<path d="M629.018 191.748C628.776 191.905 628.707 192.229 628.864 192.472C629.022 192.714 629.345 192.783 629.588 192.626C629.83 192.468 629.899 192.144 629.742 191.902C629.584 191.659 629.261 191.59 629.018 191.748Z" fill="white"/>
<path d="M566.368 201.865C566.126 202.022 566.057 202.346 566.214 202.589C566.372 202.831 566.695 202.9 566.938 202.743C567.18 202.586 567.249 202.261 567.092 202.019C566.934 201.776 566.611 201.707 566.368 201.865Z" fill="white"/>
<path d="M470.717 264.007C470.474 264.165 470.405 264.489 470.563 264.731C470.72 264.974 471.043 265.043 471.286 264.885C471.528 264.728 471.597 264.404 471.44 264.161C471.282 263.919 470.959 263.85 470.717 264.007Z" fill="white"/>
<path d="M438.271 318.8C438.029 318.958 437.96 319.282 438.117 319.524C438.275 319.767 438.598 319.836 438.841 319.678C439.083 319.521 439.152 319.197 438.994 318.955C438.837 318.712 438.514 318.643 438.271 318.8Z" fill="white"/>
<path d="M400.371 297.851C400.129 298.008 400.06 298.332 400.217 298.575C400.374 298.817 400.698 298.886 400.94 298.729C401.182 298.572 401.251 298.247 401.094 298.005C400.937 297.762 400.613 297.693 400.371 297.851Z" fill="white"/>
<path d="M719.59 117.921C719.348 118.078 719.279 118.403 719.436 118.645C719.593 118.888 719.917 118.957 720.159 118.799C720.401 118.642 720.47 118.318 720.313 118.075C720.156 117.833 719.832 117.764 719.59 117.921Z" fill="white"/>
<path opacity="0.11" d="M741.543 137.367C741.301 137.524 741.232 137.848 741.389 138.091C741.546 138.333 741.87 138.402 742.112 138.245C742.355 138.087 742.423 137.763 742.266 137.521C742.109 137.278 741.785 137.209 741.543 137.367Z" fill="white"/>
<path opacity="0.11" d="M753.859 115.006C753.617 115.163 753.548 115.487 753.705 115.73C753.862 115.972 754.186 116.041 754.428 115.884C754.67 115.727 754.739 115.402 754.582 115.16C754.425 114.917 754.101 114.848 753.859 115.006Z" fill="white"/>
<path opacity="0.11" d="M722.297 98.0563C722.055 98.2137 721.986 98.5378 722.143 98.7803C722.301 99.0228 722.624 99.0918 722.867 98.9344C723.109 98.7771 723.178 98.4529 723.021 98.2104C722.863 97.9679 722.54 97.899 722.297 98.0563Z" fill="white"/>
<path opacity="0.11" d="M629.269 183.472C629.026 183.63 628.957 183.954 629.115 184.196C629.272 184.439 629.596 184.508 629.838 184.35C630.08 184.193 630.149 183.869 629.992 183.626C629.835 183.384 629.511 183.315 629.269 183.472Z" fill="white"/>
<path opacity="0.11" d="M556.989 185.482C556.747 185.639 556.678 185.963 556.835 186.206C556.992 186.448 557.316 186.517 557.558 186.36C557.8 186.202 557.869 185.878 557.712 185.636C557.555 185.393 557.231 185.324 556.989 185.482Z" fill="white"/>
<path opacity="0.11" d="M475.601 244.607C475.359 244.764 475.29 245.088 475.447 245.331C475.604 245.573 475.928 245.642 476.17 245.485C476.413 245.328 476.482 245.003 476.324 244.761C476.167 244.518 475.843 244.449 475.601 244.607Z" fill="white"/>
<path opacity="0.3" d="M706.524 142.016C706.282 142.173 706.213 142.497 706.37 142.74C706.528 142.982 706.851 143.051 707.094 142.894C707.336 142.737 707.405 142.413 707.248 142.17C707.09 141.928 706.767 141.859 706.524 142.016Z" fill="white"/>
<path d="M620.988 231.301C620.746 231.459 620.677 231.783 620.834 232.025C620.991 232.268 621.315 232.337 621.557 232.18C621.799 232.022 621.868 231.698 621.711 231.456C621.554 231.213 621.23 231.144 620.988 231.301Z" fill="white"/>
<path d="M553.99 276.078C553.748 276.235 553.679 276.559 553.836 276.802C553.994 277.044 554.317 277.113 554.56 276.956C554.802 276.798 554.871 276.474 554.714 276.232C554.556 275.989 554.233 275.92 553.99 276.078Z" fill="white"/>
<path d="M624.627 171.504C624.385 171.661 624.316 171.985 624.473 172.228C624.63 172.47 624.954 172.539 625.196 172.382C625.439 172.225 625.507 171.9 625.35 171.658C625.193 171.416 624.869 171.346 624.627 171.504Z" fill="white"/>
<path opacity="0.3" d="M655.341 151.549C655.098 151.706 655.03 152.03 655.187 152.273C655.344 152.515 655.668 152.584 655.91 152.427C656.152 152.269 656.221 151.945 656.064 151.703C655.907 151.46 655.583 151.391 655.341 151.549Z" fill="white"/>
<path opacity="0.11" d="M708.966 155.41C708.724 155.567 708.655 155.891 708.812 156.134C708.969 156.376 709.293 156.445 709.535 156.288C709.777 156.13 709.846 155.806 709.689 155.564C709.532 155.321 709.208 155.252 708.966 155.41Z" fill="white"/>
<path opacity="0.3" d="M606.252 225.89C606.01 226.048 605.941 226.372 606.098 226.614C606.255 226.857 606.579 226.926 606.821 226.768C607.063 226.611 607.132 226.287 606.975 226.044C606.818 225.802 606.494 225.733 606.252 225.89Z" fill="white"/>
<path opacity="0.3" d="M611.755 168.004C611.512 168.161 611.443 168.486 611.601 168.728C611.758 168.971 612.082 169.04 612.324 168.882C612.566 168.725 612.635 168.401 612.478 168.158C612.321 167.916 611.997 167.847 611.755 168.004Z" fill="white"/>
<path opacity="0.3" d="M661.999 129.119C661.757 129.277 661.688 129.601 661.845 129.843C662.003 130.086 662.326 130.155 662.569 129.998C662.811 129.84 662.88 129.516 662.723 129.274C662.565 129.031 662.242 128.962 661.999 129.119Z" fill="white"/>
<path opacity="0.3" d="M693.798 150.281C693.555 150.439 693.486 150.763 693.644 151.005C693.801 151.248 694.125 151.317 694.367 151.159C694.609 151.002 694.678 150.678 694.521 150.435C694.364 150.193 694.04 150.124 693.798 150.281Z" fill="white"/>
<path opacity="0.3" d="M421.753 328.908C421.511 329.065 421.442 329.389 421.599 329.632C421.756 329.874 422.08 329.943 422.322 329.786C422.565 329.628 422.633 329.304 422.476 329.062C422.319 328.819 421.995 328.75 421.753 328.908Z" fill="white"/>
<path opacity="0.11" d="M504.067 301.023C503.824 301.18 503.756 301.504 503.913 301.747C504.07 301.989 504.394 302.058 504.636 301.901C504.878 301.744 504.947 301.419 504.79 301.177C504.633 300.934 504.309 300.865 504.067 301.023Z" fill="white"/>
<path opacity="0.11" d="M421.357 302.325C421.115 302.482 421.046 302.806 421.203 303.049C421.36 303.291 421.684 303.36 421.926 303.203C422.168 303.045 422.237 302.721 422.08 302.479C421.923 302.236 421.599 302.167 421.357 302.325Z" fill="white"/>
<path opacity="0.3" d="M529.798 226.248C529.313 226.563 529.175 227.212 529.49 227.697C529.804 228.183 530.452 228.321 530.937 228.006C531.422 227.691 531.56 227.042 531.245 226.557C530.931 226.071 530.283 225.933 529.798 226.248Z" fill="white"/>
<path opacity="0.11" d="M512.451 256.245C511.966 256.56 511.829 257.209 512.143 257.694C512.458 258.18 513.106 258.318 513.591 258.003C514.075 257.688 514.213 257.039 513.899 256.554C513.584 256.068 512.936 255.93 512.451 256.245Z" fill="white"/>
<path d="M522.634 271.477C522.27 271.713 522.167 272.2 522.403 272.564C522.639 272.928 523.124 273.031 523.488 272.795C523.851 272.559 523.955 272.073 523.719 271.709C523.483 271.345 522.997 271.241 522.634 271.477Z" fill="white"/>
<path d="M523.009 205.686C522.646 205.922 522.542 206.409 522.778 206.773C523.014 207.137 523.5 207.24 523.863 207.004C524.227 206.768 524.33 206.281 524.095 205.917C523.859 205.553 523.373 205.45 523.009 205.686Z" fill="white"/>
<path d="M371.653 291.541C371.289 291.777 371.186 292.263 371.422 292.627C371.658 292.991 372.143 293.095 372.507 292.859C372.87 292.622 372.974 292.136 372.738 291.772C372.502 291.408 372.016 291.304 371.653 291.541Z" fill="white"/>
<path d="M661.244 114.003C660.88 114.24 660.777 114.726 661.013 115.09C661.249 115.454 661.735 115.558 662.098 115.321C662.462 115.085 662.565 114.599 662.329 114.235C662.093 113.871 661.607 113.767 661.244 114.003Z" fill="white"/>
<path d="M726.142 86.1938C725.778 86.43 725.675 86.9165 725.911 87.2804C726.147 87.6444 726.632 87.7479 726.996 87.5117C727.359 87.2756 727.463 86.7891 727.227 86.4251C726.991 86.0612 726.505 85.9576 726.142 86.1938Z" fill="white"/>
<path d="M744.991 98.9183C744.628 99.1545 744.525 99.641 744.76 100.005C744.996 100.369 745.482 100.472 745.846 100.236C746.209 100 746.313 99.5136 746.077 99.1497C745.841 98.7857 745.355 98.6822 744.991 98.9183Z" fill="white"/>
<path d="M537.997 249.008C537.633 249.245 537.53 249.731 537.766 250.095C538.002 250.459 538.488 250.562 538.851 250.326C539.215 250.09 539.318 249.604 539.082 249.24C538.846 248.876 538.36 248.772 537.997 249.008Z" fill="white"/>
<path d="M593.272 166.903C592.909 167.14 592.805 167.626 593.041 167.99C593.277 168.354 593.763 168.457 594.126 168.221C594.49 167.985 594.593 167.499 594.357 167.135C594.121 166.771 593.636 166.667 593.272 166.903Z" fill="white"/>
<path d="M470.462 219.85C470.099 220.086 469.995 220.573 470.231 220.936C470.467 221.3 470.953 221.404 471.317 221.168C471.68 220.932 471.784 220.445 471.548 220.081C471.312 219.717 470.826 219.614 470.462 219.85Z" fill="white"/>
<path d="M373.558 325.262C373.195 325.499 373.091 325.985 373.327 326.349C373.563 326.713 374.049 326.816 374.413 326.58C374.776 326.344 374.88 325.858 374.644 325.494C374.408 325.13 373.922 325.026 373.558 325.262Z" fill="white"/>
<path d="M378.686 356.262C378.323 356.498 378.219 356.984 378.455 357.348C378.691 357.712 379.177 357.816 379.541 357.58C379.904 357.343 380.008 356.857 379.772 356.493C379.536 356.129 379.05 356.026 378.686 356.262Z" fill="white"/>
<path opacity="0.3" d="M486.15 294.557C485.665 294.872 485.527 295.521 485.842 296.006C486.156 296.492 486.805 296.63 487.289 296.315C487.774 296 487.912 295.351 487.598 294.866C487.283 294.38 486.635 294.242 486.15 294.557Z" fill="white"/>
<path d="M506.37 325.743C505.885 326.058 505.747 326.707 506.062 327.192C506.377 327.677 507.025 327.815 507.51 327.5C507.994 327.185 508.132 326.537 507.818 326.051C507.503 325.566 506.855 325.428 506.37 325.743Z" fill="white"/>
<path d="M457.292 299.573C456.928 299.809 456.825 300.295 457.061 300.659C457.297 301.023 457.782 301.127 458.146 300.891C458.509 300.655 458.613 300.168 458.377 299.804C458.141 299.44 457.655 299.337 457.292 299.573Z" fill="white"/>
<path opacity="0.3" d="M447.115 330.53C446.631 330.845 446.493 331.494 446.807 331.979C447.122 332.465 447.77 332.603 448.255 332.288C448.74 331.973 448.878 331.324 448.563 330.839C448.248 330.353 447.6 330.215 447.115 330.53Z" fill="white"/>
<path opacity="0.3" d="M383.464 327.564C382.979 327.879 382.841 328.528 383.156 329.013C383.47 329.498 384.118 329.636 384.603 329.321C385.088 329.006 385.226 328.358 384.911 327.872C384.597 327.387 383.949 327.249 383.464 327.564Z" fill="white"/>
<path opacity="0.3" d="M434.229 293.334C433.745 293.649 433.607 294.298 433.921 294.783C434.236 295.268 434.884 295.407 435.369 295.092C435.854 294.777 435.992 294.128 435.677 293.642C435.362 293.157 434.714 293.019 434.229 293.334Z" fill="white"/>
<path opacity="0.3" d="M681.232 122.241C680.747 122.556 680.609 123.205 680.923 123.69C681.238 124.175 681.886 124.314 682.371 123.999C682.856 123.684 682.994 123.035 682.679 122.549C682.364 122.064 681.716 121.926 681.232 122.241Z" fill="white"/>
<path opacity="0.3" d="M732.436 123.309C731.951 123.624 731.813 124.272 732.128 124.758C732.442 125.243 733.09 125.381 733.575 125.066C734.06 124.751 734.198 124.102 733.883 123.617C733.569 123.132 732.92 122.994 732.436 123.309Z" fill="white"/>
<path opacity="0.11" d="M409.994 329.053C409.51 329.368 409.372 330.017 409.686 330.502C410.001 330.988 410.649 331.126 411.134 330.811C411.619 330.496 411.757 329.847 411.442 329.362C411.127 328.876 410.479 328.738 409.994 329.053Z" fill="white"/>
<path opacity="0.3" d="M679.374 179.006C678.889 179.321 678.751 179.97 679.066 180.455C679.38 180.941 680.029 181.079 680.513 180.764C680.998 180.449 681.136 179.8 680.821 179.315C680.507 178.829 679.859 178.691 679.374 179.006Z" fill="white"/>
<path opacity="0.11" d="M696.915 180.096C696.43 180.411 696.292 181.06 696.607 181.545C696.922 182.031 697.57 182.169 698.055 181.854C698.539 181.539 698.677 180.89 698.363 180.405C698.048 179.919 697.4 179.781 696.915 180.096Z" fill="white"/>
<path opacity="0.3" d="M682.199 149.703C681.714 150.018 681.576 150.667 681.89 151.152C682.205 151.637 682.853 151.776 683.338 151.461C683.823 151.146 683.961 150.497 683.646 150.011C683.332 149.526 682.683 149.388 682.199 149.703Z" fill="white"/>
<path d="M655.065 167.958C654.702 168.194 654.598 168.681 654.834 169.045C655.07 169.408 655.556 169.512 655.919 169.276C656.283 169.04 656.386 168.553 656.151 168.189C655.915 167.825 655.429 167.722 655.065 167.958Z" fill="white"/>
<path opacity="0.11" d="M300.829 300.922C300.344 301.237 300.206 301.886 300.521 302.371C300.836 302.857 301.484 302.995 301.969 302.68C302.453 302.365 302.591 301.716 302.277 301.231C301.962 300.745 301.314 300.607 300.829 300.922Z" fill="white"/>
<path d="M294.849 297.943C294.486 298.179 294.382 298.665 294.618 299.029C294.854 299.393 295.34 299.497 295.703 299.261C296.067 299.024 296.17 298.538 295.934 298.174C295.698 297.81 295.213 297.706 294.849 297.943Z" fill="white"/>
<path d="M286.346 316.573C285.983 316.809 285.879 317.296 286.115 317.66C286.351 318.024 286.837 318.127 287.201 317.891C287.564 317.655 287.668 317.168 287.432 316.804C287.196 316.44 286.71 316.337 286.346 316.573Z" fill="white"/>
<path d="M324.212 293.224C323.849 293.46 323.745 293.947 323.981 294.311C324.217 294.675 324.703 294.778 325.066 294.542C325.43 294.306 325.533 293.819 325.297 293.455C325.062 293.092 324.576 292.988 324.212 293.224Z" fill="white"/>
<path opacity="0.11" d="M339.099 268.57C338.614 268.885 338.476 269.534 338.791 270.019C339.106 270.504 339.754 270.642 340.239 270.327C340.723 270.012 340.861 269.364 340.547 268.878C340.232 268.393 339.584 268.255 339.099 268.57Z" fill="white"/>
<path d="M353.697 272.818C353.455 272.975 353.386 273.299 353.543 273.542C353.7 273.784 354.024 273.853 354.266 273.696C354.509 273.539 354.577 273.215 354.42 272.972C354.263 272.73 353.939 272.661 353.697 272.818Z" fill="white"/>
<path d="M291.047 282.935C290.805 283.092 290.736 283.417 290.893 283.659C291.05 283.902 291.374 283.971 291.616 283.813C291.858 283.656 291.927 283.332 291.77 283.089C291.613 282.847 291.289 282.778 291.047 282.935Z" fill="white"/>
<path d="M195.395 345.078C195.153 345.235 195.084 345.559 195.241 345.802C195.398 346.044 195.722 346.113 195.964 345.956C196.207 345.798 196.275 345.474 196.118 345.232C195.961 344.989 195.637 344.92 195.395 345.078Z" fill="white"/>
<path d="M162.949 399.872C162.707 400.029 162.638 400.353 162.795 400.596C162.952 400.838 163.276 400.907 163.518 400.75C163.76 400.592 163.829 400.268 163.672 400.026C163.515 399.783 163.191 399.714 162.949 399.872Z" fill="white"/>
<path d="M125.05 378.923C124.808 379.08 124.739 379.404 124.896 379.647C125.053 379.889 125.377 379.958 125.619 379.801C125.861 379.643 125.93 379.319 125.773 379.077C125.616 378.834 125.292 378.765 125.05 378.923Z" fill="white"/>
<path d="M444.269 198.991C444.027 199.148 443.958 199.472 444.116 199.715C444.273 199.957 444.596 200.026 444.839 199.869C445.081 199.712 445.15 199.387 444.993 199.145C444.835 198.902 444.512 198.833 444.269 198.991Z" fill="white"/>
<path opacity="0.11" d="M466.222 218.436C465.98 218.593 465.911 218.917 466.068 219.16C466.225 219.402 466.549 219.471 466.791 219.314C467.033 219.157 467.102 218.832 466.945 218.59C466.788 218.347 466.464 218.278 466.222 218.436Z" fill="white"/>
<path opacity="0.11" d="M478.537 196.075C478.294 196.232 478.225 196.557 478.383 196.799C478.54 197.042 478.864 197.111 479.106 196.953C479.348 196.796 479.417 196.472 479.26 196.229C479.103 195.987 478.779 195.918 478.537 196.075Z" fill="white"/>
<path opacity="0.11" d="M446.976 179.127C446.734 179.284 446.665 179.608 446.822 179.851C446.979 180.093 447.303 180.162 447.545 180.005C447.787 179.847 447.856 179.523 447.699 179.281C447.542 179.038 447.218 178.969 446.976 179.127Z" fill="white"/>
<path opacity="0.11" d="M353.947 264.542C353.705 264.699 353.636 265.024 353.793 265.266C353.95 265.509 354.274 265.578 354.516 265.42C354.759 265.263 354.828 264.939 354.67 264.696C354.513 264.454 354.189 264.385 353.947 264.542Z" fill="white"/>
<path opacity="0.11" d="M281.674 266.552C281.432 266.709 281.363 267.033 281.52 267.276C281.678 267.518 282.001 267.587 282.244 267.43C282.486 267.273 282.555 266.948 282.398 266.706C282.24 266.463 281.917 266.394 281.674 266.552Z" fill="white"/>
<path opacity="0.11" d="M200.279 325.676C200.037 325.833 199.968 326.158 200.125 326.4C200.282 326.642 200.606 326.711 200.848 326.554C201.09 326.397 201.159 326.073 201.002 325.83C200.845 325.588 200.521 325.519 200.279 325.676Z" fill="white"/>
<path opacity="0.3" d="M431.202 223.086C430.96 223.244 430.891 223.568 431.048 223.81C431.205 224.053 431.529 224.122 431.771 223.964C432.013 223.807 432.082 223.483 431.925 223.24C431.768 222.998 431.444 222.929 431.202 223.086Z" fill="white"/>
<path d="M345.668 312.37C345.425 312.527 345.356 312.851 345.514 313.094C345.671 313.336 345.995 313.405 346.237 313.248C346.479 313.09 346.548 312.766 346.391 312.524C346.234 312.281 345.91 312.212 345.668 312.37Z" fill="white"/>
<path d="M278.669 357.148C278.426 357.305 278.357 357.629 278.515 357.872C278.672 358.114 278.996 358.183 279.238 358.026C279.48 357.869 279.549 357.545 279.392 357.302C279.234 357.06 278.911 356.991 278.669 357.148Z" fill="white"/>
<path d="M349.306 252.573C349.064 252.73 348.995 253.054 349.152 253.297C349.31 253.539 349.633 253.608 349.876 253.451C350.118 253.293 350.187 252.969 350.029 252.727C349.872 252.484 349.549 252.415 349.306 252.573Z" fill="white"/>
<path opacity="0.3" d="M380.019 232.619C379.777 232.776 379.708 233.1 379.865 233.343C380.022 233.585 380.346 233.654 380.588 233.497C380.83 233.34 380.899 233.016 380.742 232.773C380.585 232.531 380.261 232.462 380.019 232.619Z" fill="white"/>
<path opacity="0.11" d="M433.644 236.479C433.402 236.637 433.333 236.961 433.491 237.203C433.648 237.446 433.971 237.515 434.214 237.358C434.456 237.2 434.525 236.876 434.368 236.634C434.21 236.391 433.887 236.322 433.644 236.479Z" fill="white"/>
<path opacity="0.3" d="M330.93 306.96C330.688 307.118 330.619 307.442 330.776 307.684C330.933 307.927 331.257 307.996 331.499 307.839C331.742 307.681 331.811 307.357 331.653 307.115C331.496 306.872 331.172 306.803 330.93 306.96Z" fill="white"/>
<path opacity="0.3" d="M336.433 249.074C336.191 249.231 336.122 249.555 336.279 249.798C336.436 250.04 336.76 250.109 337.002 249.952C337.245 249.795 337.314 249.47 337.156 249.228C336.999 248.985 336.675 248.916 336.433 249.074Z" fill="white"/>
<path opacity="0.3" d="M386.678 210.189C386.436 210.346 386.367 210.67 386.524 210.913C386.681 211.155 387.005 211.224 387.247 211.067C387.489 210.909 387.558 210.585 387.401 210.343C387.244 210.1 386.92 210.031 386.678 210.189Z" fill="white"/>
<path opacity="0.3" d="M418.476 231.351C418.234 231.508 418.165 231.833 418.322 232.075C418.479 232.318 418.803 232.387 419.045 232.229C419.287 232.072 419.356 231.748 419.199 231.505C419.042 231.263 418.718 231.194 418.476 231.351Z" fill="white"/>
<path opacity="0.3" d="M146.432 409.977C146.19 410.134 146.121 410.458 146.278 410.701C146.435 410.943 146.759 411.012 147.001 410.855C147.243 410.698 147.312 410.373 147.155 410.131C146.998 409.888 146.674 409.82 146.432 409.977Z" fill="white"/>
<path opacity="0.11" d="M228.744 382.093C228.502 382.25 228.433 382.575 228.59 382.817C228.748 383.06 229.071 383.129 229.314 382.971C229.556 382.814 229.625 382.49 229.467 382.247C229.31 382.005 228.987 381.936 228.744 382.093Z" fill="white"/>
<path opacity="0.11" d="M146.035 383.395C145.793 383.552 145.724 383.876 145.881 384.119C146.038 384.361 146.362 384.43 146.604 384.273C146.846 384.116 146.915 383.791 146.758 383.549C146.601 383.306 146.277 383.237 146.035 383.395Z" fill="white"/>
<path opacity="0.3" d="M254.476 307.318C253.991 307.633 253.853 308.282 254.168 308.768C254.482 309.253 255.13 309.391 255.615 309.076C256.1 308.761 256.238 308.112 255.923 307.627C255.609 307.141 254.961 307.003 254.476 307.318Z" fill="white"/>
<path opacity="0.11" d="M237.13 337.314C236.645 337.629 236.507 338.278 236.822 338.764C237.137 339.249 237.785 339.387 238.269 339.072C238.754 338.757 238.892 338.108 238.578 337.623C238.263 337.137 237.615 336.999 237.13 337.314Z" fill="white"/>
<path d="M247.312 352.547C246.949 352.783 246.845 353.27 247.081 353.634C247.317 353.998 247.803 354.101 248.167 353.865C248.53 353.629 248.634 353.142 248.398 352.778C248.162 352.414 247.676 352.311 247.312 352.547Z" fill="white"/>
<path d="M247.688 286.755C247.324 286.991 247.221 287.478 247.457 287.842C247.693 288.206 248.179 288.309 248.542 288.073C248.906 287.837 249.009 287.35 248.773 286.987C248.537 286.623 248.051 286.519 247.688 286.755Z" fill="white"/>
<path d="M96.3304 372.61C95.9669 372.847 95.8634 373.333 96.0993 373.697C96.3352 374.061 96.8212 374.165 97.1847 373.928C97.5482 373.692 97.6516 373.206 97.4157 372.842C97.1798 372.478 96.6939 372.374 96.3304 372.61Z" fill="white"/>
<path d="M385.923 195.073C385.559 195.309 385.456 195.795 385.692 196.159C385.928 196.523 386.413 196.627 386.777 196.391C387.141 196.154 387.244 195.668 387.008 195.304C386.772 194.94 386.286 194.836 385.923 195.073Z" fill="white"/>
<path d="M450.82 167.264C450.456 167.5 450.353 167.987 450.589 168.351C450.825 168.715 451.311 168.818 451.674 168.582C452.038 168.346 452.141 167.859 451.905 167.495C451.669 167.132 451.183 167.028 450.82 167.264Z" fill="white"/>
<path d="M469.669 179.988C469.306 180.224 469.202 180.71 469.438 181.074C469.674 181.438 470.16 181.542 470.523 181.306C470.887 181.069 470.99 180.583 470.755 180.219C470.519 179.855 470.033 179.751 469.669 179.988Z" fill="white"/>
<path d="M262.675 330.079C262.312 330.315 262.209 330.801 262.444 331.165C262.68 331.529 263.166 331.633 263.53 331.397C263.893 331.16 263.997 330.674 263.761 330.31C263.525 329.946 263.039 329.842 262.675 330.079Z" fill="white"/>
<path d="M317.951 247.974C317.587 248.21 317.484 248.696 317.72 249.06C317.956 249.424 318.442 249.528 318.805 249.292C319.169 249.055 319.272 248.569 319.036 248.205C318.8 247.841 318.314 247.737 317.951 247.974Z" fill="white"/>
<path d="M195.141 300.92C194.778 301.156 194.674 301.643 194.91 302.007C195.146 302.371 195.632 302.474 195.995 302.238C196.359 302.002 196.462 301.515 196.226 301.151C195.991 300.788 195.505 300.684 195.141 300.92Z" fill="white"/>
<path d="M98.2369 406.332C97.8734 406.568 97.77 407.054 98.0059 407.418C98.2418 407.782 98.7277 407.886 99.0912 407.649C99.4547 407.413 99.5582 406.927 99.3222 406.563C99.0863 406.199 98.6004 406.095 98.2369 406.332Z" fill="white"/>
<path opacity="0.3" d="M210.835 375.626C210.351 375.941 210.213 376.59 210.527 377.076C210.842 377.561 211.49 377.699 211.975 377.384C212.46 377.069 212.598 376.42 212.283 375.935C211.968 375.45 211.32 375.311 210.835 375.626Z" fill="white"/>
<path d="M231.048 406.812C230.563 407.127 230.426 407.776 230.74 408.261C231.055 408.747 231.703 408.885 232.188 408.57C232.672 408.255 232.81 407.606 232.496 407.12C232.181 406.635 231.533 406.497 231.048 406.812Z" fill="white"/>
<path d="M181.969 380.642C181.606 380.878 181.502 381.365 181.738 381.729C181.974 382.093 182.46 382.196 182.824 381.96C183.187 381.724 183.291 381.237 183.055 380.873C182.819 380.509 182.333 380.406 181.969 380.642Z" fill="white"/>
<path opacity="0.3" d="M171.794 411.599C171.309 411.914 171.171 412.563 171.486 413.049C171.801 413.534 172.449 413.672 172.934 413.357C173.418 413.042 173.556 412.393 173.242 411.908C172.927 411.423 172.279 411.284 171.794 411.599Z" fill="white"/>
<path opacity="0.3" d="M108.142 408.633C107.657 408.948 107.519 409.597 107.833 410.082C108.148 410.568 108.796 410.706 109.281 410.391C109.766 410.076 109.904 409.427 109.589 408.941C109.274 408.456 108.626 408.318 108.142 408.633Z" fill="white"/>
<path opacity="0.3" d="M158.908 374.403C158.423 374.718 158.285 375.367 158.599 375.852C158.914 376.338 159.562 376.476 160.047 376.161C160.532 375.846 160.67 375.197 160.355 374.712C160.04 374.226 159.392 374.088 158.908 374.403Z" fill="white"/>
<path opacity="0.3" d="M405.91 203.311C405.425 203.626 405.287 204.275 405.602 204.76C405.917 205.246 406.565 205.384 407.05 205.069C407.534 204.754 407.672 204.105 407.358 203.62C407.043 203.134 406.395 202.996 405.91 203.311Z" fill="white"/>
<path opacity="0.3" d="M457.114 204.378C456.63 204.693 456.492 205.342 456.806 205.827C457.121 206.312 457.769 206.45 458.254 206.135C458.738 205.82 458.876 205.172 458.562 204.686C458.247 204.201 457.599 204.063 457.114 204.378Z" fill="white"/>
<path opacity="0.11" d="M134.673 410.123C134.188 410.438 134.05 411.087 134.365 411.572C134.68 412.058 135.328 412.196 135.812 411.881C136.297 411.566 136.435 410.917 136.121 410.431C135.806 409.946 135.158 409.808 134.673 410.123Z" fill="white"/>
<path opacity="0.3" d="M404.052 260.076C403.567 260.391 403.429 261.04 403.744 261.526C404.059 262.011 404.707 262.149 405.191 261.834C405.676 261.519 405.814 260.87 405.5 260.385C405.185 259.9 404.537 259.761 404.052 260.076Z" fill="white"/>
<path opacity="0.11" d="M421.593 261.165C421.109 261.48 420.971 262.129 421.285 262.614C421.6 263.1 422.248 263.238 422.733 262.923C423.218 262.608 423.355 261.959 423.041 261.473C422.726 260.988 422.078 260.85 421.593 261.165Z" fill="white"/>
<path opacity="0.3" d="M406.877 230.773C406.393 231.088 406.255 231.737 406.569 232.222C406.884 232.708 407.532 232.846 408.017 232.531C408.501 232.216 408.639 231.567 408.325 231.082C408.01 230.596 407.362 230.458 406.877 230.773Z" fill="white"/>
<path d="M379.745 249.028C379.381 249.264 379.278 249.751 379.514 250.115C379.75 250.479 380.236 250.582 380.599 250.346C380.963 250.11 381.066 249.623 380.83 249.26C380.594 248.896 380.108 248.792 379.745 249.028Z" fill="white"/>
</g>
</g>
<defs>
<radialGradient id="paint0_radial_30_19" cx="0" cy="0" r="1" gradientUnits="userSpaceOnUse" gradientTransform="translate(1368 953.457) scale(702.49 703.912)">
<stop stop-color="#7877C6"/>
<stop offset="0.7" stop-opacity="0"/>
</radialGradient>
<radialGradient id="paint1_radial_30_19" cx="0" cy="0" r="1" gradientUnits="userSpaceOnUse" gradientTransform="translate(1232.63 1128.22) scale(758.056 758.942)">
<stop/>
<stop offset="1" stop-opacity="0"/>
</radialGradient>
<clipPath id="clip0_30_19">
<rect width="912" height="535" fill="white" transform="translate(912 418) rotate(-180)"/>
</clipPath>
</defs>
</svg>
