<svg width="1454" height="1892" viewBox="0 0 1454 1892" fill="none" xmlns="http://www.w3.org/2000/svg">
<path d="M837.929 1H781.332M837.929 1V53.118M837.929 1H894.527M781.332 1V53.118M781.332 1H723.071M781.332 53.118H837.929M781.332 53.118V103.747M781.332 53.118H723.071M837.929 53.118H894.527M837.929 53.118V103.747M894.527 1V53.118M894.527 1H952.788M894.527 53.118H952.788M894.527 53.118V103.747M952.788 1V53.118M952.788 1H1009.39M952.788 53.118H1009.39M952.788 53.118V103.747M1009.39 1V53.118M1009.39 1H1065.98M1009.39 53.118H1065.98M1009.39 53.118V103.747M1065.98 1V53.118M1065.98 1H1122.58M1065.98 53.118H1122.58M1065.98 53.118V103.747M1122.58 1V53.118M1122.58 1H1180.84M1122.58 53.118H1180.84M1122.58 53.118V103.747M1180.84 1V53.118M1180.84 1H1237.44M1180.84 53.118H1237.44M1180.84 53.118V103.747M1237.44 1V53.118M1237.44 1H1294.04M1237.44 53.118H1294.04M1237.44 53.118V103.747M1294.04 1V53.118M1294.04 1H1352.3M1294.04 53.118H1352.3M1294.04 53.118V103.747M1352.3 1V53.118M1352.3 1H1408.89M1352.3 53.118H1408.89M1352.3 53.118V103.747M1408.89 1V53.118M1408.89 1H1465.49M1408.89 53.118H1465.49M1408.89 53.118V103.747M1465.49 1V53.118M1465.49 1H1522.09M1465.49 53.118H1522.09M1465.49 53.118V103.747M1522.09 1V53.118M1522.09 1H1580.35M1522.09 53.118H1580.35M1522.09 53.118V103.747M1580.35 1V53.118M1580.35 1H1636.95M1580.35 53.118H1636.95M1580.35 53.118V103.747M1636.95 1V53.118M1636.95 1H1693.54M1636.95 53.118H1693.54M1636.95 53.118V103.747M1693.54 1V53.118M1693.54 1H1750.14M1693.54 53.118H1750.14M1693.54 53.118V103.747M1750.14 1V53.118M1750.14 1H1808.4M1750.14 53.118H1808.4M1750.14 53.118V103.747M1808.4 1V53.118M1808.4 1H1865V53.118M1808.4 53.118H1865M1808.4 53.118V103.747M1865 53.118V103.747M781.332 103.747H837.929M781.332 103.747V154.376M781.332 103.747H723.071M837.929 103.747H894.527M837.929 103.747V154.376M894.527 103.747H952.788M894.527 103.747V154.376M952.788 103.747H1009.39M952.788 103.747V154.376M1009.39 103.747H1065.98M1009.39 103.747V154.376M1065.98 103.747H1122.58M1065.98 103.747V154.376M1122.58 103.747H1180.84M1122.58 103.747V154.376M1180.84 103.747H1237.44M1180.84 103.747V154.376M1237.44 103.747H1294.04M1237.44 103.747V154.376M1294.04 103.747H1352.3M1294.04 103.747V154.376M1352.3 103.747H1408.89M1352.3 103.747V154.376M1408.89 103.747H1465.49M1408.89 103.747V154.376M1465.49 103.747H1522.09M1465.49 103.747V154.376M1522.09 103.747H1580.35M1522.09 103.747V154.376M1580.35 103.747H1636.95M1580.35 103.747V154.376M1636.95 103.747H1693.54M1636.95 103.747V154.376M1693.54 103.747H1750.14M1693.54 103.747V154.376M1750.14 103.747H1808.4M1750.14 103.747V154.376M1808.4 103.747H1865M1808.4 103.747V154.376M1865 103.747V154.376M781.332 154.376H837.929M781.332 154.376V206.494M781.332 154.376H723.071M837.929 154.376H894.527M837.929 154.376V206.494M894.527 154.376H952.788M894.527 154.376V206.494M952.788 154.376H1009.39M952.788 154.376V206.494M1009.39 154.376H1065.98M1009.39 154.376V206.494M1065.98 154.376H1122.58M1065.98 154.376V206.494M1122.58 154.376H1180.84M1122.58 154.376V206.494M1180.84 154.376H1237.44M1180.84 154.376V206.494M1237.44 154.376H1294.04M1237.44 154.376V206.494M1294.04 154.376H1352.3M1294.04 154.376V206.494M1352.3 154.376H1408.89M1352.3 154.376V206.494M1408.89 154.376H1465.49M1408.89 154.376V206.494M1465.49 154.376H1522.09M1465.49 154.376V206.494M1522.09 154.376H1580.35M1522.09 154.376V206.494M1580.35 154.376H1636.95M1580.35 154.376V206.494M1636.95 154.376H1693.54M1636.95 154.376V206.494M1693.54 154.376H1750.14M1693.54 154.376V206.494M1750.14 154.376H1808.4M1750.14 154.376V206.494M1808.4 154.376H1865M1808.4 154.376V206.494M1865 154.376V206.494M781.332 206.494H837.929M781.332 206.494V257.123M781.332 206.494H723.071M837.929 206.494H894.527M837.929 206.494V257.123M894.527 206.494H952.788M894.527 206.494V257.123M952.788 206.494H1009.39M952.788 206.494V257.123M1009.39 206.494H1065.98M1009.39 206.494V257.123M1065.98 206.494H1122.58M1065.98 206.494V257.123M1122.58 206.494H1180.84M1122.58 206.494V257.123M1180.84 206.494H1237.44M1180.84 206.494V257.123M1237.44 206.494H1294.04M1237.44 206.494V257.123M1294.04 206.494H1352.3M1294.04 206.494V257.123M1352.3 206.494H1408.89M1352.3 206.494V257.123M1408.89 206.494H1465.49M1408.89 206.494V257.123M1465.49 206.494H1522.09M1465.49 206.494V257.123M1522.09 206.494H1580.35M1522.09 206.494V257.123M1580.35 206.494H1636.95M1580.35 206.494V257.123M1636.95 206.494H1693.54M1636.95 206.494V257.123M1693.54 206.494H1750.14M1693.54 206.494V257.123M1750.14 206.494H1808.4M1750.14 206.494V257.123M1808.4 206.494H1865M1808.4 206.494V257.123M1865 206.494V257.123M781.332 257.123H837.929M781.332 257.123V307.751M781.332 257.123H723.071M837.929 257.123H894.527M837.929 257.123V307.751M894.527 257.123H952.788M894.527 257.123V307.751M952.788 257.123H1009.39M952.788 257.123V307.751M1009.39 257.123H1065.98M1009.39 257.123V307.751M1065.98 257.123H1122.58M1065.98 257.123V307.751M1122.58 257.123H1180.84M1122.58 257.123V307.751M1180.84 257.123H1237.44M1180.84 257.123V307.751M1237.44 257.123H1294.04M1237.44 257.123V307.751M1294.04 257.123H1352.3M1294.04 257.123V307.751M1352.3 257.123H1408.89M1352.3 257.123V307.751M1408.89 257.123H1465.49M1408.89 257.123V307.751M1465.49 257.123H1522.09M1465.49 257.123V307.751M1522.09 257.123H1580.35M1522.09 257.123V307.751M1580.35 257.123H1636.95M1580.35 257.123V307.751M1636.95 257.123H1693.54M1636.95 257.123V307.751M1693.54 257.123H1750.14M1693.54 257.123V307.751M1750.14 257.123H1808.4M1750.14 257.123V307.751M1808.4 257.123H1865M1808.4 257.123V307.751M1865 257.123V307.751M781.332 307.751H837.929M781.332 307.751V359.869M781.332 307.751H723.071M837.929 307.751H894.527M837.929 307.751V359.869M894.527 307.751H952.788M894.527 307.751V359.869M952.788 307.751H1009.39M952.788 307.751V359.869M1009.39 307.751H1065.98M1009.39 307.751V359.869M1065.98 307.751H1122.58M1065.98 307.751V359.869M1122.58 307.751H1180.84M1122.58 307.751V359.869M1180.84 307.751H1237.44M1180.84 307.751V359.869M1237.44 307.751H1294.04M1237.44 307.751V359.869M1294.04 307.751H1352.3M1294.04 307.751V359.869M1352.3 307.751H1408.89M1352.3 307.751V359.869M1408.89 307.751H1465.49M1408.89 307.751V359.869M1465.49 307.751H1522.09M1465.49 307.751V359.869M1522.09 307.751H1580.35M1522.09 307.751V359.869M1580.35 307.751H1636.95M1580.35 307.751V359.869M1636.95 307.751H1693.54M1636.95 307.751V359.869M1693.54 307.751H1750.14M1693.54 307.751V359.869M1750.14 307.751H1808.4M1750.14 307.751V359.869M1808.4 307.751H1865M1808.4 307.751V359.869M1865 307.751V359.869M781.332 359.869H837.929M781.332 359.869V410.498M781.332 359.869H723.071M837.929 359.869H894.527M837.929 359.869V410.498M894.527 359.869H952.788M894.527 359.869V410.498M952.788 359.869H1009.39M952.788 359.869V410.498M1009.39 359.869H1065.98M1009.39 359.869V410.498M1065.98 359.869H1122.58M1065.98 359.869V410.498M1122.58 359.869H1180.84M1122.58 359.869V410.498M1180.84 359.869H1237.44M1180.84 359.869V410.498M1237.44 359.869H1294.04M1237.44 359.869V410.498M1294.04 359.869H1352.3M1294.04 359.869V410.498M1352.3 359.869H1408.89M1352.3 359.869V410.498M1408.89 359.869H1465.49M1408.89 359.869V410.498M1465.49 359.869H1522.09M1465.49 359.869V410.498M1522.09 359.869H1580.35M1522.09 359.869V410.498M1580.35 359.869H1636.95M1580.35 359.869V410.498M1636.95 359.869H1693.54M1636.95 359.869V410.498M1693.54 359.869H1750.14M1693.54 359.869V410.498M1750.14 359.869H1808.4M1750.14 359.869V410.498M1808.4 359.869H1865M1808.4 359.869V410.498M1865 359.869V410.498M781.332 410.498H837.929M781.332 410.498V461.127M781.332 410.498H723.071M837.929 410.498H894.527M837.929 410.498V461.127M894.527 410.498H952.788M894.527 410.498V461.127M952.788 410.498H1009.39M952.788 410.498V461.127M1009.39 410.498H1065.98M1009.39 410.498V461.127M1065.98 410.498H1122.58M1065.98 410.498V461.127M1122.58 410.498H1180.84M1122.58 410.498V461.127M1180.84 410.498H1237.44M1180.84 410.498V461.127M1237.44 410.498H1294.04M1237.44 410.498V461.127M1294.04 410.498H1352.3M1294.04 410.498V461.127M1352.3 410.498H1408.89M1352.3 410.498V461.127M1408.89 410.498H1465.49M1408.89 410.498V461.127M1465.49 410.498H1522.09M1465.49 410.498V461.127M1522.09 410.498H1580.35M1522.09 410.498V461.127M1580.35 410.498H1636.95M1580.35 410.498V461.127M1636.95 410.498H1693.54M1636.95 410.498V461.127M1693.54 410.498H1750.14M1693.54 410.498V461.127M1750.14 410.498H1808.4M1750.14 410.498V461.127M1808.4 410.498H1865M1808.4 410.498V461.127M1865 410.498V461.127M781.332 461.127H837.929M781.332 461.127V511.756M781.332 461.127H723.071M837.929 461.127H894.527M837.929 461.127V511.756M894.527 461.127H952.788M894.527 461.127V511.756M952.788 461.127H1009.39M952.788 461.127V511.756M1009.39 461.127H1065.98M1009.39 461.127V511.756M1065.98 461.127H1122.58M1065.98 461.127V511.756M1122.58 461.127H1180.84M1122.58 461.127V511.756M1180.84 461.127H1237.44M1180.84 461.127V511.756M1237.44 461.127H1294.04M1237.44 461.127V511.756M1294.04 461.127H1352.3M1294.04 461.127V511.756M1352.3 461.127H1408.89M1352.3 461.127V511.756M1408.89 461.127H1465.49M1408.89 461.127V511.756M1465.49 461.127H1522.09M1465.49 461.127V511.756M1522.09 461.127H1580.35M1522.09 461.127V511.756M1580.35 461.127H1636.95M1580.35 461.127V511.756M1636.95 461.127H1693.54M1636.95 461.127V511.756M1693.54 461.127H1750.14M1693.54 461.127V511.756M1750.14 461.127H1808.4M1750.14 461.127V511.756M1808.4 461.127H1865M1808.4 461.127V511.756M1865 461.127V511.756M781.332 511.756H837.929M781.332 511.756V563.874M781.332 511.756H723.071M837.929 511.756H894.527M837.929 511.756V563.874M894.527 511.756H952.788M894.527 511.756V563.874M952.788 511.756H1009.39M952.788 511.756V563.874M1009.39 511.756H1065.98M1009.39 511.756V563.874M1065.98 511.756H1122.58M1065.98 511.756V563.874M1122.58 511.756H1180.84M1122.58 511.756V563.874M1180.84 511.756H1237.44M1180.84 511.756V563.874M1237.44 511.756H1294.04M1237.44 511.756V563.874M1294.04 511.756H1352.3M1294.04 511.756V563.874M1352.3 511.756H1408.89M1352.3 511.756V563.874M1408.89 511.756H1465.49M1408.89 511.756V563.874M1465.49 511.756H1522.09M1465.49 511.756V563.874M1522.09 511.756H1580.35M1522.09 511.756V563.874M1580.35 511.756H1636.95M1580.35 511.756V563.874M1636.95 511.756H1693.54M1636.95 511.756V563.874M1693.54 511.756H1750.14M1693.54 511.756V563.874M1750.14 511.756H1808.4M1750.14 511.756V563.874M1808.4 511.756H1865M1808.4 511.756V563.874M1865 511.756V563.874M781.332 563.874H837.929M781.332 563.874V614.503M781.332 563.874H723.071M837.929 563.874H894.527M837.929 563.874V614.503M894.527 563.874H952.788M894.527 563.874V614.503M952.788 563.874H1009.39M952.788 563.874V614.503M1009.39 563.874H1065.98M1009.39 563.874V614.503M1065.98 563.874H1122.58M1065.98 563.874V614.503M1122.58 563.874H1180.84M1122.58 563.874V614.503M1180.84 563.874H1237.44M1180.84 563.874V614.503M1237.44 563.874H1294.04M1237.44 563.874V614.503M1294.04 563.874H1352.3M1294.04 563.874V614.503M1352.3 563.874H1408.89M1352.3 563.874V614.503M1408.89 563.874H1465.49M1408.89 563.874V614.503M1465.49 563.874H1522.09M1465.49 563.874V614.503M1522.09 563.874H1580.35M1522.09 563.874V614.503M1580.35 563.874H1636.95M1580.35 563.874V614.503M1636.95 563.874H1693.54M1636.95 563.874V614.503M1693.54 563.874H1750.14M1693.54 563.874V614.503M1750.14 563.874H1808.4M1750.14 563.874V614.503M1808.4 563.874H1865M1808.4 563.874V614.503M1865 563.874V614.503M781.332 614.503H837.929M781.332 614.503V665.132M781.332 614.503H723.071M837.929 614.503H894.527M837.929 614.503V665.132M894.527 614.503H952.788M894.527 614.503V665.132M952.788 614.503H1009.39M952.788 614.503V665.132M1009.39 614.503H1065.98M1009.39 614.503V665.132M1065.98 614.503H1122.58M1065.98 614.503V665.132M1122.58 614.503H1180.84M1122.58 614.503V665.132M1180.84 614.503H1237.44M1180.84 614.503V665.132M1237.44 614.503H1294.04M1237.44 614.503V665.132M1294.04 614.503H1352.3M1294.04 614.503V665.132M1352.3 614.503H1408.89M1352.3 614.503V665.132M1408.89 614.503H1465.49M1408.89 614.503V665.132M1465.49 614.503H1522.09M1465.49 614.503V665.132M1522.09 614.503H1580.35M1522.09 614.503V665.132M1580.35 614.503H1636.95M1580.35 614.503V665.132M1636.95 614.503H1693.54M1636.95 614.503V665.132M1693.54 614.503H1750.14M1693.54 614.503V665.132M1750.14 614.503H1808.4M1750.14 614.503V665.132M1808.4 614.503H1865M1808.4 614.503V665.132M1865 614.503V665.132M781.332 665.132H837.929M781.332 665.132V717.25M781.332 665.132H723.071M837.929 665.132H894.527M837.929 665.132V717.25M894.527 665.132H952.788M894.527 665.132V717.25M952.788 665.132H1009.39M952.788 665.132V717.25M1009.39 665.132H1065.98M1009.39 665.132V717.25M1065.98 665.132H1122.58M1065.98 665.132V717.25M1122.58 665.132H1180.84M1122.58 665.132V717.25M1180.84 665.132H1237.44M1180.84 665.132V717.25M1237.44 665.132H1294.04M1237.44 665.132V717.25M1294.04 665.132H1352.3M1294.04 665.132V717.25M1352.3 665.132H1408.89M1352.3 665.132V717.25M1408.89 665.132H1465.49M1408.89 665.132V717.25M1465.49 665.132H1522.09M1465.49 665.132V717.25M1522.09 665.132H1580.35M1522.09 665.132V717.25M1580.35 665.132H1636.95M1580.35 665.132V717.25M1636.95 665.132H1693.54M1636.95 665.132V717.25M1693.54 665.132H1750.14M1693.54 665.132V717.25M1750.14 665.132H1808.4M1750.14 665.132V717.25M1808.4 665.132H1865M1808.4 665.132V717.25M1865 665.132V717.25M781.332 717.25H837.929M781.332 717.25V767.879M781.332 717.25H723.071M837.929 717.25H894.527M837.929 717.25V767.879M894.527 717.25H952.788M894.527 717.25V767.879M952.788 717.25H1009.39M952.788 717.25V767.879M1009.39 717.25H1065.98M1009.39 717.25V767.879M1065.98 717.25H1122.58M1065.98 717.25V767.879M1122.58 717.25H1180.84M1122.58 717.25V767.879M1180.84 717.25H1237.44M1180.84 717.25V767.879M1237.44 717.25H1294.04M1237.44 717.25V767.879M1294.04 717.25H1352.3M1294.04 717.25V767.879M1352.3 717.25H1408.89M1352.3 717.25V767.879M1408.89 717.25H1465.49M1408.89 717.25V767.879M1465.49 717.25H1522.09M1465.49 717.25V767.879M1522.09 717.25H1580.35M1522.09 717.25V767.879M1580.35 717.25H1636.95M1580.35 717.25V767.879M1636.95 717.25H1693.54M1636.95 717.25V767.879M1693.54 717.25H1750.14M1693.54 717.25V767.879M1750.14 717.25H1808.4M1750.14 717.25V767.879M1808.4 717.25H1865M1808.4 717.25V767.879M1865 717.25V767.879M781.332 767.879H837.929M781.332 767.879V818.508M781.332 767.879H723.071M837.929 767.879H894.527M837.929 767.879V818.508M894.527 767.879H952.788M894.527 767.879V818.508M952.788 767.879H1009.39M952.788 767.879V818.508M1009.39 767.879H1065.98M1009.39 767.879V818.508M1065.98 767.879H1122.58M1065.98 767.879V818.508M1122.58 767.879H1180.84M1122.58 767.879V818.508M1180.84 767.879H1237.44M1180.84 767.879V818.508M1237.44 767.879H1294.04M1237.44 767.879V818.508M1294.04 767.879H1352.3M1294.04 767.879V818.508M1352.3 767.879H1408.89M1352.3 767.879V818.508M1408.89 767.879H1465.49M1408.89 767.879V818.508M1465.49 767.879H1522.09M1465.49 767.879V818.508M1522.09 767.879H1580.35M1522.09 767.879V818.508M1580.35 767.879H1636.95M1580.35 767.879V818.508M1636.95 767.879H1693.54M1636.95 767.879V818.508M1693.54 767.879H1750.14M1693.54 767.879V818.508M1750.14 767.879H1808.4M1750.14 767.879V818.508M1808.4 767.879H1865M1808.4 767.879V818.508M1865 767.879V818.508M781.332 818.508H837.929M781.332 818.508V869.136M781.332 818.508H723.071M837.929 818.508H894.527M837.929 818.508V869.136M894.527 818.508H952.788M894.527 818.508V869.136M952.788 818.508H1009.39M952.788 818.508V869.136M1009.39 818.508H1065.98M1009.39 818.508V869.136M1065.98 818.508H1122.58M1065.98 818.508V869.136M1122.58 818.508H1180.84M1122.58 818.508V869.136M1180.84 818.508H1237.44M1180.84 818.508V869.136M1237.44 818.508H1294.04M1237.44 818.508V869.136M1294.04 818.508H1352.3M1294.04 818.508V869.136M1352.3 818.508H1408.89M1352.3 818.508V869.136M1408.89 818.508H1465.49M1408.89 818.508V869.136M1465.49 818.508H1522.09M1465.49 818.508V869.136M1522.09 818.508H1580.35M1522.09 818.508V869.136M1580.35 818.508H1636.95M1580.35 818.508V869.136M1636.95 818.508H1693.54M1636.95 818.508V869.136M1693.54 818.508H1750.14M1693.54 818.508V869.136M1750.14 818.508H1808.4M1750.14 818.508V869.136M1808.4 818.508H1865M1808.4 818.508V869.136M1865 818.508V869.136M781.332 869.136H837.929M781.332 869.136V921.254M781.332 869.136H723.071M837.929 869.136H894.527M837.929 869.136V921.254M894.527 869.136H952.788M894.527 869.136V921.254M952.788 869.136H1009.39M952.788 869.136V921.254M1009.39 869.136H1065.98M1009.39 869.136V921.254M1065.98 869.136H1122.58M1065.98 869.136V921.254M1122.58 869.136H1180.84M1122.58 869.136V921.254M1180.84 869.136H1237.44M1180.84 869.136V921.254M1237.44 869.136H1294.04M1237.44 869.136V921.254M1294.04 869.136H1352.3M1294.04 869.136V921.254M1352.3 869.136H1408.89M1352.3 869.136V921.254M1408.89 869.136H1465.49M1408.89 869.136V921.254M1465.49 869.136H1522.09M1465.49 869.136V921.254M1522.09 869.136H1580.35M1522.09 869.136V921.254M1580.35 869.136H1636.95M1580.35 869.136V921.254M1636.95 869.136H1693.54M1636.95 869.136V921.254M1693.54 869.136H1750.14M1693.54 869.136V921.254M1750.14 869.136H1808.4M1750.14 869.136V921.254M1808.4 869.136H1865M1808.4 869.136V921.254M1865 869.136V921.254M781.332 921.254H837.929M781.332 921.254V971.883M781.332 921.254H723.071M837.929 921.254H894.527M837.929 921.254V971.883M894.527 921.254H952.788M894.527 921.254V971.883M952.788 921.254H1009.39M952.788 921.254V971.883M1009.39 921.254H1065.98M1009.39 921.254V971.883M1065.98 921.254H1122.58M1065.98 921.254V971.883M1122.58 921.254H1180.84M1122.58 921.254V971.883M1180.84 921.254H1237.44M1180.84 921.254V971.883M1237.44 921.254H1294.04M1237.44 921.254V971.883M1294.04 921.254H1352.3M1294.04 921.254V971.883M1352.3 921.254H1408.89M1352.3 921.254V971.883M1408.89 921.254H1465.49M1408.89 921.254V971.883M1465.49 921.254H1522.09M1465.49 921.254V971.883M1522.09 921.254H1580.35M1522.09 921.254V971.883M1580.35 921.254H1636.95M1580.35 921.254V971.883M1636.95 921.254H1693.54M1636.95 921.254V971.883M1693.54 921.254H1750.14M1693.54 921.254V971.883M1750.14 921.254H1808.4M1750.14 921.254V971.883M1808.4 921.254H1865M1808.4 921.254V971.883M1865 921.254V971.883M781.332 971.883H837.929M781.332 971.883V1022.51M781.332 971.883H723.071M837.929 971.883H894.527M837.929 971.883V1022.51M894.527 971.883H952.788M894.527 971.883V1022.51M952.788 971.883H1009.39M952.788 971.883V1022.51M1009.39 971.883H1065.98M1009.39 971.883V1022.51M1065.98 971.883H1122.58M1065.98 971.883V1022.51M1122.58 971.883H1180.84M1122.58 971.883V1022.51M1180.84 971.883H1237.44M1180.84 971.883V1022.51M1237.44 971.883H1294.04M1237.44 971.883V1022.51M1294.04 971.883H1352.3M1294.04 971.883V1022.51M1352.3 971.883H1408.89M1352.3 971.883V1022.51M1408.89 971.883H1465.49M1408.89 971.883V1022.51M1465.49 971.883H1522.09M1465.49 971.883V1022.51M1522.09 971.883H1580.35M1522.09 971.883V1022.51M1580.35 971.883H1636.95M1580.35 971.883V1022.51M1636.95 971.883H1693.54M1636.95 971.883V1022.51M1693.54 971.883H1750.14M1693.54 971.883V1022.51M1750.14 971.883H1808.4M1750.14 971.883V1022.51M1808.4 971.883H1865M1808.4 971.883V1022.51M1865 971.883V1022.51M781.332 1022.51H837.929M781.332 1022.51V1074.63M781.332 1022.51H723.071M837.929 1022.51H894.527M837.929 1022.51V1074.63M894.527 1022.51H952.788M894.527 1022.51V1074.63M952.788 1022.51H1009.39M952.788 1022.51V1074.63M1009.39 1022.51H1065.98M1009.39 1022.51V1074.63M1065.98 1022.51H1122.58M1065.98 1022.51V1074.63M1122.58 1022.51H1180.84M1122.58 1022.51V1074.63M1180.84 1022.51H1237.44M1180.84 1022.51V1074.63M1237.44 1022.51H1294.04M1237.44 1022.51V1074.63M1294.04 1022.51H1352.3M1294.04 1022.51V1074.63M1352.3 1022.51H1408.89M1352.3 1022.51V1074.63M1408.89 1022.51H1465.49M1408.89 1022.51V1074.63M1465.49 1022.51H1522.09M1465.49 1022.51V1074.63M1522.09 1022.51H1580.35M1522.09 1022.51V1074.63M1580.35 1022.51H1636.95M1580.35 1022.51V1074.63M1636.95 1022.51H1693.54M1636.95 1022.51V1074.63M1693.54 1022.51H1750.14M1693.54 1022.51V1074.63M1750.14 1022.51H1808.4M1750.14 1022.51V1074.63M1808.4 1022.51H1865M1808.4 1022.51V1074.63M1865 1022.51V1074.63M781.332 1074.63H837.929M781.332 1074.63V1125.26M781.332 1074.63H723.071M837.929 1074.63H894.527M837.929 1074.63V1125.26M894.527 1074.63H952.788M894.527 1074.63V1125.26M952.788 1074.63H1009.39M952.788 1074.63V1125.26M1009.39 1074.63H1065.98M1009.39 1074.63V1125.26M1065.98 1074.63H1122.58M1065.98 1074.63V1125.26M1122.58 1074.63H1180.84M1122.58 1074.63V1125.26M1180.84 1074.63H1237.44M1180.84 1074.63V1125.26M1237.44 1074.63H1294.04M1237.44 1074.63V1125.26M1294.04 1074.63H1352.3M1294.04 1074.63V1125.26M1352.3 1074.63H1408.89M1352.3 1074.63V1125.26M1408.89 1074.63H1465.49M1408.89 1074.63V1125.26M1465.49 1074.63H1522.09M1465.49 1074.63V1125.26M1522.09 1074.63H1580.35M1522.09 1074.63V1125.26M1580.35 1074.63H1636.95M1580.35 1074.63V1125.26M1636.95 1074.63H1693.54M1636.95 1074.63V1125.26M1693.54 1074.63H1750.14M1693.54 1074.63V1125.26M1750.14 1074.63H1808.4M1750.14 1074.63V1125.26M1808.4 1074.63H1865M1808.4 1074.63V1125.26M1865 1074.63V1125.26M781.332 1125.26H837.929M781.332 1125.26V1175.89M781.332 1125.26H723.071M837.929 1125.26H894.527M837.929 1125.26V1175.89M894.527 1125.26H952.788M894.527 1125.26V1175.89M952.788 1125.26H1009.39M952.788 1125.26V1175.89M1009.39 1125.26H1065.98M1009.39 1125.26V1175.89M1065.98 1125.26H1122.58M1065.98 1125.26V1175.89M1122.58 1125.26H1180.84M1122.58 1125.26V1175.89M1180.84 1125.26H1237.44M1180.84 1125.26V1175.89M1237.44 1125.26H1294.04M1237.44 1125.26V1175.89M1294.04 1125.26H1352.3M1294.04 1125.26V1175.89M1352.3 1125.26H1408.89M1352.3 1125.26V1175.89M1408.89 1125.26H1465.49M1408.89 1125.26V1175.89M1465.49 1125.26H1522.09M1465.49 1125.26V1175.89M1522.09 1125.26H1580.35M1522.09 1125.26V1175.89M1580.35 1125.26H1636.95M1580.35 1125.26V1175.89M1636.95 1125.26H1693.54M1636.95 1125.26V1175.89M1693.54 1125.26H1750.14M1693.54 1125.26V1175.89M1750.14 1125.26H1808.4M1750.14 1125.26V1175.89M1808.4 1125.26H1865M1808.4 1125.26V1175.89M1865 1125.26V1175.89M781.332 1175.89H837.929M781.332 1175.89V1228.01M781.332 1175.89H723.071M837.929 1175.89H894.527M837.929 1175.89V1228.01M894.527 1175.89H952.788M894.527 1175.89V1228.01M952.788 1175.89H1009.39M952.788 1175.89V1228.01M1009.39 1175.89H1065.98M1009.39 1175.89V1228.01M1065.98 1175.89H1122.58M1065.98 1175.89V1228.01M1122.58 1175.89H1180.84M1122.58 1175.89V1228.01M1180.84 1175.89H1237.44M1180.84 1175.89V1228.01M1237.44 1175.89H1294.04M1237.44 1175.89V1228.01M1294.04 1175.89H1352.3M1294.04 1175.89V1228.01M1352.3 1175.89H1408.89M1352.3 1175.89V1228.01M1408.89 1175.89H1465.49M1408.89 1175.89V1228.01M1465.49 1175.89H1522.09M1465.49 1175.89V1228.01M1522.09 1175.89H1580.35M1522.09 1175.89V1228.01M1580.35 1175.89H1636.95M1580.35 1175.89V1228.01M1636.95 1175.89H1693.54M1636.95 1175.89V1228.01M1693.54 1175.89H1750.14M1693.54 1175.89V1228.01M1750.14 1175.89H1808.4M1750.14 1175.89V1228.01M1808.4 1175.89H1865M1808.4 1175.89V1228.01M1865 1175.89V1228.01M781.332 1228.01H837.929M781.332 1228.01V1278.63M781.332 1228.01H723.071M837.929 1228.01H894.527M837.929 1228.01V1278.63M894.527 1228.01H952.788M894.527 1228.01V1278.63M952.788 1228.01H1009.39M952.788 1228.01V1278.63M1009.39 1228.01H1065.98M1009.39 1228.01V1278.63M1065.98 1228.01H1122.58M1065.98 1228.01V1278.63M1122.58 1228.01H1180.84M1122.58 1228.01V1278.63M1180.84 1228.01H1237.44M1180.84 1228.01V1278.63M1237.44 1228.01H1294.04M1237.44 1228.01V1278.63M1294.04 1228.01H1352.3M1294.04 1228.01V1278.63M1352.3 1228.01H1408.89M1352.3 1228.01V1278.63M1408.89 1228.01H1465.49M1408.89 1228.01V1278.63M1465.49 1228.01H1522.09M1465.49 1228.01V1278.63M1522.09 1228.01H1580.35M1522.09 1228.01V1278.63M1580.35 1228.01H1636.95M1580.35 1228.01V1278.63M1636.95 1228.01H1693.54M1636.95 1228.01V1278.63M1693.54 1228.01H1750.14M1693.54 1228.01V1278.63M1750.14 1228.01H1808.4M1750.14 1228.01V1278.63M1808.4 1228.01H1865M1808.4 1228.01V1278.63M1865 1228.01V1278.63M781.332 1278.63H837.929M781.332 1278.63V1329.26M781.332 1278.63H723.071M837.929 1278.63H894.527M837.929 1278.63V1329.26M894.527 1278.63H952.788M894.527 1278.63V1329.26M952.788 1278.63H1009.39M952.788 1278.63V1329.26M1009.39 1278.63H1065.98M1009.39 1278.63V1329.26M1065.98 1278.63H1122.58M1065.98 1278.63V1329.26M1122.58 1278.63H1180.84M1122.58 1278.63V1329.26M1180.84 1278.63H1237.44M1180.84 1278.63V1329.26M1237.44 1278.63H1294.04M1237.44 1278.63V1329.26M1294.04 1278.63H1352.3M1294.04 1278.63V1329.26M1352.3 1278.63H1408.89M1352.3 1278.63V1329.26M1408.89 1278.63H1465.49M1408.89 1278.63V1329.26M1465.49 1278.63H1522.09M1465.49 1278.63V1329.26M1522.09 1278.63H1580.35M1522.09 1278.63V1329.26M1580.35 1278.63H1636.95M1580.35 1278.63V1329.26M1636.95 1278.63H1693.54M1636.95 1278.63V1329.26M1693.54 1278.63H1750.14M1693.54 1278.63V1329.26M1750.14 1278.63H1808.4M1750.14 1278.63V1329.26M1808.4 1278.63H1865M1808.4 1278.63V1329.26M1865 1278.63V1329.26M781.332 1329.26H837.929M781.332 1329.26V1379.89M781.332 1329.26H723.071M837.929 1329.26H894.527M837.929 1329.26V1379.89M894.527 1329.26H952.788M894.527 1329.26V1379.89M952.788 1329.26H1009.39M952.788 1329.26V1379.89M1009.39 1329.26H1065.98M1009.39 1329.26V1379.89M1065.98 1329.26H1122.58M1065.98 1329.26V1379.89M1122.58 1329.26H1180.84M1122.58 1329.26V1379.89M1180.84 1329.26H1237.44M1180.84 1329.26V1379.89M1237.44 1329.26H1294.04M1237.44 1329.26V1379.89M1294.04 1329.26H1352.3M1294.04 1329.26V1379.89M1352.3 1329.26H1408.89M1352.3 1329.26V1379.89M1408.89 1329.26H1465.49M1408.89 1329.26V1379.89M1465.49 1329.26H1522.09M1465.49 1329.26V1379.89M1522.09 1329.26H1580.35M1522.09 1329.26V1379.89M1580.35 1329.26H1636.95M1580.35 1329.26V1379.89M1636.95 1329.26H1693.54M1636.95 1329.26V1379.89M1693.54 1329.26H1750.14M1693.54 1329.26V1379.89M1750.14 1329.26H1808.4M1750.14 1329.26V1379.89M1808.4 1329.26H1865M1808.4 1329.26V1379.89M1865 1329.26V1379.89M781.332 1379.89H837.929M781.332 1379.89V1432.01M781.332 1379.89H723.071M837.929 1379.89H894.527M837.929 1379.89V1432.01M894.527 1379.89H952.788M894.527 1379.89V1432.01M952.788 1379.89H1009.39M952.788 1379.89V1432.01M1009.39 1379.89H1065.98M1009.39 1379.89V1432.01M1065.98 1379.89H1122.58M1065.98 1379.89V1432.01M1122.58 1379.89H1180.84M1122.58 1379.89V1432.01M1180.84 1379.89H1237.44M1180.84 1379.89V1432.01M1237.44 1379.89H1294.04M1237.44 1379.89V1432.01M1294.04 1379.89H1352.3M1294.04 1379.89V1432.01M1352.3 1379.89H1408.89M1352.3 1379.89V1432.01M1408.89 1379.89H1465.49M1408.89 1379.89V1432.01M1465.49 1379.89H1522.09M1465.49 1379.89V1432.01M1522.09 1379.89H1580.35M1522.09 1379.89V1432.01M1580.35 1379.89H1636.95M1580.35 1379.89V1432.01M1636.95 1379.89H1693.54M1636.95 1379.89V1432.01M1693.54 1379.89H1750.14M1693.54 1379.89V1432.01M1750.14 1379.89H1808.4M1750.14 1379.89V1432.01M1808.4 1379.89H1865M1808.4 1379.89V1432.01M1865 1379.89V1432.01M781.332 1432.01H837.929M781.332 1432.01V1482.64M781.332 1432.01H723.071M837.929 1432.01H894.527M837.929 1432.01V1482.64M894.527 1432.01H952.788M894.527 1432.01V1482.64M952.788 1432.01H1009.39M952.788 1432.01V1482.64M1009.39 1432.01H1065.98M1009.39 1432.01V1482.64M1065.98 1432.01H1122.58M1065.98 1432.01V1482.64M1122.58 1432.01H1180.84M1122.58 1432.01V1482.64M1180.84 1432.01H1237.44M1180.84 1432.01V1482.64M1237.44 1432.01H1294.04M1237.44 1432.01V1482.64M1294.04 1432.01H1352.3M1294.04 1432.01V1482.64M1352.3 1432.01H1408.89M1352.3 1432.01V1482.64M1408.89 1432.01H1465.49M1408.89 1432.01V1482.64M1465.49 1432.01H1522.09M1465.49 1432.01V1482.64M1522.09 1432.01H1580.35M1522.09 1432.01V1482.64M1580.35 1432.01H1636.95M1580.35 1432.01V1482.64M1636.95 1432.01H1693.54M1636.95 1432.01V1482.64M1693.54 1432.01H1750.14M1693.54 1432.01V1482.64M1750.14 1432.01H1808.4M1750.14 1432.01V1482.64M1808.4 1432.01H1865M1808.4 1432.01V1482.64M1865 1432.01V1482.64M781.332 1482.64H837.929M781.332 1482.64V1533.27M781.332 1482.64H723.071M837.929 1482.64H894.527M837.929 1482.64V1533.27M894.527 1482.64H952.788M894.527 1482.64V1533.27M952.788 1482.64H1009.39M952.788 1482.64V1533.27M1009.39 1482.64H1065.98M1009.39 1482.64V1533.27M1065.98 1482.64H1122.58M1065.98 1482.64V1533.27M1122.58 1482.64H1180.84M1122.58 1482.64V1533.27M1180.84 1482.64H1237.44M1180.84 1482.64V1533.27M1237.44 1482.64H1294.04M1237.44 1482.64V1533.27M1294.04 1482.64H1352.3M1294.04 1482.64V1533.27M1352.3 1482.64H1408.89M1352.3 1482.64V1533.27M1408.89 1482.64H1465.49M1408.89 1482.64V1533.27M1465.49 1482.64H1522.09M1465.49 1482.64V1533.27M1522.09 1482.64H1580.35M1522.09 1482.64V1533.27M1580.35 1482.64H1636.95M1580.35 1482.64V1533.27M1636.95 1482.64H1693.54M1636.95 1482.64V1533.27M1693.54 1482.64H1750.14M1693.54 1482.64V1533.27M1750.14 1482.64H1808.4M1750.14 1482.64V1533.27M1808.4 1482.64H1865M1808.4 1482.64V1533.27M1865 1482.64V1533.27M781.332 1533.27H837.929M781.332 1533.27V1585.39M781.332 1533.27H723.071M837.929 1533.27H894.527M837.929 1533.27V1585.39M894.527 1533.27H952.788M894.527 1533.27V1585.39M952.788 1533.27H1009.39M952.788 1533.27V1585.39M1009.39 1533.27H1065.98M1009.39 1533.27V1585.39M1065.98 1533.27H1122.58M1065.98 1533.27V1585.39M1122.58 1533.27H1180.84M1122.58 1533.27V1585.39M1180.84 1533.27H1237.44M1180.84 1533.27V1585.39M1237.44 1533.27H1294.04M1237.44 1533.27V1585.39M1294.04 1533.27H1352.3M1294.04 1533.27V1585.39M1352.3 1533.27H1408.89M1352.3 1533.27V1585.39M1408.89 1533.27H1465.49M1408.89 1533.27V1585.39M1465.49 1533.27H1522.09M1465.49 1533.27V1585.39M1522.09 1533.27H1580.35M1522.09 1533.27V1585.39M1580.35 1533.27H1636.95M1580.35 1533.27V1585.39M1636.95 1533.27H1693.54M1636.95 1533.27V1585.39M1693.54 1533.27H1750.14M1693.54 1533.27V1585.39M1750.14 1533.27H1808.4M1750.14 1533.27V1585.39M1808.4 1533.27H1865M1808.4 1533.27V1585.39M1865 1533.27V1585.39M781.332 1585.39H837.929M781.332 1585.39V1636.02M781.332 1585.39H723.071M837.929 1585.39H894.527M837.929 1585.39V1636.02M894.527 1585.39H952.788M894.527 1585.39V1636.02M952.788 1585.39H1009.39M952.788 1585.39V1636.02M1009.39 1585.39H1065.98M1009.39 1585.39V1636.02M1065.98 1585.39H1122.58M1065.98 1585.39V1636.02M1122.58 1585.39H1180.84M1122.58 1585.39V1636.02M1180.84 1585.39H1237.44M1180.84 1585.39V1636.02M1237.44 1585.39H1294.04M1237.44 1585.39V1636.02M1294.04 1585.39H1352.3M1294.04 1585.39V1636.02M1352.3 1585.39H1408.89M1352.3 1585.39V1636.02M1408.89 1585.39H1465.49M1408.89 1585.39V1636.02M1465.49 1585.39H1522.09M1465.49 1585.39V1636.02M1522.09 1585.39H1580.35M1522.09 1585.39V1636.02M1580.35 1585.39H1636.95M1580.35 1585.39V1636.02M1636.95 1585.39H1693.54M1636.95 1585.39V1636.02M1693.54 1585.39H1750.14M1693.54 1585.39V1636.02M1750.14 1585.39H1808.4M1750.14 1585.39V1636.02M1808.4 1585.39H1865M1808.4 1585.39V1636.02M1865 1585.39V1636.02M781.332 1636.02H837.929M781.332 1636.02V1686.64M781.332 1636.02H723.071M837.929 1636.02H894.527M837.929 1636.02V1686.64M894.527 1636.02H952.788M894.527 1636.02V1686.64M952.788 1636.02H1009.39M952.788 1636.02V1686.64M1009.39 1636.02H1065.98M1009.39 1636.02V1686.64M1065.98 1636.02H1122.58M1065.98 1636.02V1686.64M1122.58 1636.02H1180.84M1122.58 1636.02V1686.64M1180.84 1636.02H1237.44M1180.84 1636.02V1686.64M1237.44 1636.02H1294.04M1237.44 1636.02V1686.64M1294.04 1636.02H1352.3M1294.04 1636.02V1686.64M1352.3 1636.02H1408.89M1352.3 1636.02V1686.64M1408.89 1636.02H1465.49M1408.89 1636.02V1686.64M1465.49 1636.02H1522.09M1465.49 1636.02V1686.64M1522.09 1636.02H1580.35M1522.09 1636.02V1686.64M1580.35 1636.02H1636.95M1580.35 1636.02V1686.64M1636.95 1636.02H1693.54M1636.95 1636.02V1686.64M1693.54 1636.02H1750.14M1693.54 1636.02V1686.64M1750.14 1636.02H1808.4M1750.14 1636.02V1686.64M1808.4 1636.02H1865M1808.4 1636.02V1686.64M1865 1636.02V1686.64M781.332 1686.64H837.929M781.332 1686.64V1738.76M781.332 1686.64H723.071M837.929 1686.64H894.527M837.929 1686.64V1738.76M894.527 1686.64H952.788M894.527 1686.64V1738.76M952.788 1686.64H1009.39M952.788 1686.64V1738.76M1009.39 1686.64H1065.98M1009.39 1686.64V1738.76M1065.98 1686.64H1122.58M1065.98 1686.64V1738.76M1122.58 1686.64H1180.84M1122.58 1686.64V1738.76M1180.84 1686.64H1237.44M1180.84 1686.64V1738.76M1237.44 1686.64H1294.04M1237.44 1686.64V1738.76M1294.04 1686.64H1352.3M1294.04 1686.64V1738.76M1352.3 1686.64H1408.89M1352.3 1686.64V1738.76M1408.89 1686.64H1465.49M1408.89 1686.64V1738.76M1465.49 1686.64H1522.09M1465.49 1686.64V1738.76M1522.09 1686.64H1580.35M1522.09 1686.64V1738.76M1580.35 1686.64H1636.95M1580.35 1686.64V1738.76M1636.95 1686.64H1693.54M1636.95 1686.64V1738.76M1693.54 1686.64H1750.14M1693.54 1686.64V1738.76M1750.14 1686.64H1808.4M1750.14 1686.64V1738.76M1808.4 1686.64H1865M1808.4 1686.64V1738.76M1865 1686.64V1738.76M781.332 1738.76H837.929M781.332 1738.76V1789.39M781.332 1738.76H723.071M837.929 1738.76H894.527M837.929 1738.76V1789.39M894.527 1738.76H952.788M894.527 1738.76V1789.39M952.788 1738.76H1009.39M952.788 1738.76V1789.39M1009.39 1738.76H1065.98M1009.39 1738.76V1789.39M1065.98 1738.76H1122.58M1065.98 1738.76V1789.39M1122.58 1738.76H1180.84M1122.58 1738.76V1789.39M1180.84 1738.76H1237.44M1180.84 1738.76V1789.39M1237.44 1738.76H1294.04M1237.44 1738.76V1789.39M1294.04 1738.76H1352.3M1294.04 1738.76V1789.39M1352.3 1738.76H1408.89M1352.3 1738.76V1789.39M1408.89 1738.76H1465.49M1408.89 1738.76V1789.39M1465.49 1738.76H1522.09M1465.49 1738.76V1789.39M1522.09 1738.76H1580.35M1522.09 1738.76V1789.39M1580.35 1738.76H1636.95M1580.35 1738.76V1789.39M1636.95 1738.76H1693.54M1636.95 1738.76V1789.39M1693.54 1738.76H1750.14M1693.54 1738.76V1789.39M1750.14 1738.76H1808.4M1750.14 1738.76V1789.39M1808.4 1738.76H1865M1808.4 1738.76V1789.39M1865 1738.76V1789.39M781.332 1789.39H837.929M781.332 1789.39V1840.02M781.332 1789.39H723.071M837.929 1789.39H894.527M837.929 1789.39V1840.02M894.527 1789.39H952.788M894.527 1789.39V1840.02M952.788 1789.39H1009.39M952.788 1789.39V1840.02M1009.39 1789.39H1065.98M1009.39 1789.39V1840.02M1065.98 1789.39H1122.58M1065.98 1789.39V1840.02M1122.58 1789.39H1180.84M1122.58 1789.39V1840.02M1180.84 1789.39H1237.44M1180.84 1789.39V1840.02M1237.44 1789.39H1294.04M1237.44 1789.39V1840.02M1294.04 1789.39H1352.3M1294.04 1789.39V1840.02M1352.3 1789.39H1408.89M1352.3 1789.39V1840.02M1408.89 1789.39H1465.49M1408.89 1789.39V1840.02M1465.49 1789.39H1522.09M1465.49 1789.39V1840.02M1522.09 1789.39H1580.35M1522.09 1789.39V1840.02M1580.35 1789.39H1636.95M1580.35 1789.39V1840.02M1636.95 1789.39H1693.54M1636.95 1789.39V1840.02M1693.54 1789.39H1750.14M1693.54 1789.39V1840.02M1750.14 1789.39H1808.4M1750.14 1789.39V1840.02M1808.4 1789.39H1865M1808.4 1789.39V1840.02M1865 1789.39V1840.02M781.332 1840.02H837.929M781.332 1840.02V1890.65M781.332 1840.02H723.071M837.929 1840.02H894.527M837.929 1840.02V1890.65M894.527 1840.02H952.788M894.527 1840.02V1890.65M952.788 1840.02H1009.39M952.788 1840.02V1890.65M1009.39 1840.02H1065.98M1009.39 1840.02V1890.65M1065.98 1840.02H1122.58M1065.98 1840.02V1890.65M1122.58 1840.02H1180.84M1122.58 1840.02V1890.65M1180.84 1840.02H1237.44M1180.84 1840.02V1890.65M1237.44 1840.02H1294.04M1237.44 1840.02V1890.65M1294.04 1840.02H1352.3M1294.04 1840.02V1890.65M1352.3 1840.02H1408.89M1352.3 1840.02V1890.65M1408.89 1840.02H1465.49M1408.89 1840.02V1890.65M1465.49 1840.02H1522.09M1465.49 1840.02V1890.65M1522.09 1840.02H1580.35M1522.09 1840.02V1890.65M1580.35 1840.02H1636.95M1580.35 1840.02V1890.65M1636.95 1840.02H1693.54M1636.95 1840.02V1890.65M1693.54 1840.02H1750.14M1693.54 1840.02V1890.65M1750.14 1840.02H1808.4M1750.14 1840.02V1890.65M1808.4 1840.02H1865M1808.4 1840.02V1890.65M1865 1840.02V1890.65H1808.4M781.332 1890.65H837.929M781.332 1890.65H723.071M837.929 1890.65H894.527M894.527 1890.65H952.788M952.788 1890.65H1009.39M1009.39 1890.65H1065.98M1065.98 1890.65H1122.58M1122.58 1890.65H1180.84M1180.84 1890.65H1237.44M1237.44 1890.65H1294.04M1294.04 1890.65H1352.3M1352.3 1890.65H1408.89M1408.89 1890.65H1465.49M1465.49 1890.65H1522.09M1522.09 1890.65H1580.35M1580.35 1890.65H1636.95M1636.95 1890.65H1693.54M1693.54 1890.65H1750.14M1750.14 1890.65H1808.4M-245.738 1H-304V53.118M-245.738 1V53.118M-245.738 1H-189.141M-304 53.118H-245.738M-304 53.118V103.747M-245.738 53.118H-189.141M-245.738 53.118V103.747M-189.141 1V53.118M-189.141 1H-132.544M-189.141 53.118H-132.544M-189.141 53.118V103.747M-132.544 1V53.118M-132.544 1H-74.2824M-132.544 53.118H-74.2824M-132.544 53.118V103.747M-74.2824 1V53.118M-74.2824 1H-17.6853M-74.2824 53.118H-17.6853M-74.2824 53.118V103.747M-17.6853 1V53.118M-17.6853 1H38.9118M-17.6853 53.118H38.9118M-17.6853 53.118V103.747M38.9118 1V53.118M38.9118 1H95.5088M38.9118 53.118H95.5088M38.9118 53.118V103.747M95.5088 1V53.118M95.5088 1H153.771M95.5088 53.118H153.771M95.5088 53.118V103.747M153.771 1V53.118M153.771 1H210.368M153.771 53.118H210.368M153.771 53.118V103.747M210.368 1V53.118M210.368 1H266.965M210.368 53.118H266.965M210.368 53.118V103.747M266.965 1V53.118M266.965 1H323.562M266.965 53.118H323.562M266.965 53.118V103.747M323.562 1V53.118M323.562 1H381.824M323.562 53.118H381.824M323.562 53.118V103.747M381.824 1V53.118M381.824 1H438.421M381.824 53.118H438.421M381.824 53.118V103.747M438.421 1V53.118M438.421 1H495.018M438.421 53.118H495.018M438.421 53.118V103.747M495.018 1V53.118M495.018 1H553.279M495.018 53.118H553.279M495.018 53.118V103.747M553.279 1V53.118M553.279 1H609.876M553.279 53.118H609.876M553.279 53.118V103.747M609.876 1V53.118M609.876 1H666.474M609.876 53.118H666.474M609.876 53.118V103.747M666.474 1V53.118M666.474 1H723.071M666.474 53.118H723.071M666.474 53.118V103.747M723.071 1V53.118M723.071 53.118V103.747M-304 103.747H-245.738M-304 103.747V154.376M-245.738 103.747H-189.141M-245.738 103.747V154.376M-189.141 103.747H-132.544M-189.141 103.747V154.376M-132.544 103.747H-74.2824M-132.544 103.747V154.376M-74.2824 103.747H-17.6853M-74.2824 103.747V154.376M-17.6853 103.747H38.9118M-17.6853 103.747V154.376M38.9118 103.747H95.5088M38.9118 103.747V154.376M95.5088 103.747H153.771M95.5088 103.747V154.376M153.771 103.747H210.368M153.771 103.747V154.376M210.368 103.747H266.965M210.368 103.747V154.376M266.965 103.747H323.562M266.965 103.747V154.376M323.562 103.747H381.824M323.562 103.747V154.376M381.824 103.747H438.421M381.824 103.747V154.376M438.421 103.747H495.018M438.421 103.747V154.376M495.018 103.747H553.279M495.018 103.747V154.376M553.279 103.747H609.876M553.279 103.747V154.376M609.876 103.747H666.474M609.876 103.747V154.376M666.474 103.747H723.071M666.474 103.747V154.376M723.071 103.747V154.376M-304 154.376H-245.738M-304 154.376V206.494M-245.738 154.376H-189.141M-245.738 154.376V206.494M-189.141 154.376H-132.544M-189.141 154.376V206.494M-132.544 154.376H-74.2824M-132.544 154.376V206.494M-74.2824 154.376H-17.6853M-74.2824 154.376V206.494M-17.6853 154.376H38.9118M-17.6853 154.376V206.494M38.9118 154.376H95.5088M38.9118 154.376V206.494M95.5088 154.376H153.771M95.5088 154.376V206.494M153.771 154.376H210.368M153.771 154.376V206.494M210.368 154.376H266.965M210.368 154.376V206.494M266.965 154.376H323.562M266.965 154.376V206.494M323.562 154.376H381.824M323.562 154.376V206.494M381.824 154.376H438.421M381.824 154.376V206.494M438.421 154.376H495.018M438.421 154.376V206.494M495.018 154.376H553.279M495.018 154.376V206.494M553.279 154.376H609.876M553.279 154.376V206.494M609.876 154.376H666.474M609.876 154.376V206.494M666.474 154.376H723.071M666.474 154.376V206.494M723.071 154.376V206.494M-304 206.494H-245.738M-304 206.494V257.123M-245.738 206.494H-189.141M-245.738 206.494V257.123M-189.141 206.494H-132.544M-189.141 206.494V257.123M-132.544 206.494H-74.2824M-132.544 206.494V257.123M-74.2824 206.494H-17.6853M-74.2824 206.494V257.123M-17.6853 206.494H38.9118M-17.6853 206.494V257.123M38.9118 206.494H95.5088M38.9118 206.494V257.123M95.5088 206.494H153.771M95.5088 206.494V257.123M153.771 206.494H210.368M153.771 206.494V257.123M210.368 206.494H266.965M210.368 206.494V257.123M266.965 206.494H323.562M266.965 206.494V257.123M323.562 206.494H381.824M323.562 206.494V257.123M381.824 206.494H438.421M381.824 206.494V257.123M438.421 206.494H495.018M438.421 206.494V257.123M495.018 206.494H553.279M495.018 206.494V257.123M553.279 206.494H609.876M553.279 206.494V257.123M609.876 206.494H666.474M609.876 206.494V257.123M666.474 206.494H723.071M666.474 206.494V257.123M723.071 206.494V257.123M-304 257.123H-245.738M-304 257.123V307.751M-245.738 257.123H-189.141M-245.738 257.123V307.751M-189.141 257.123H-132.544M-189.141 257.123V307.751M-132.544 257.123H-74.2824M-132.544 257.123V307.751M-74.2824 257.123H-17.6853M-74.2824 257.123V307.751M-17.6853 257.123H38.9118M-17.6853 257.123V307.751M38.9118 257.123H95.5088M38.9118 257.123V307.751M95.5088 257.123H153.771M95.5088 257.123V307.751M153.771 257.123H210.368M153.771 257.123V307.751M210.368 257.123H266.965M210.368 257.123V307.751M266.965 257.123H323.562M266.965 257.123V307.751M323.562 257.123H381.824M323.562 257.123V307.751M381.824 257.123H438.421M381.824 257.123V307.751M438.421 257.123H495.018M438.421 257.123V307.751M495.018 257.123H553.279M495.018 257.123V307.751M553.279 257.123H609.876M553.279 257.123V307.751M609.876 257.123H666.474M609.876 257.123V307.751M666.474 257.123H723.071M666.474 257.123V307.751M723.071 257.123V307.751M-304 307.751H-245.738M-304 307.751V359.869M-245.738 307.751H-189.141M-245.738 307.751V359.869M-189.141 307.751H-132.544M-189.141 307.751V359.869M-132.544 307.751H-74.2824M-132.544 307.751V359.869M-74.2824 307.751H-17.6853M-74.2824 307.751V359.869M-17.6853 307.751H38.9118M-17.6853 307.751V359.869M38.9118 307.751H95.5088M38.9118 307.751V359.869M95.5088 307.751H153.771M95.5088 307.751V359.869M153.771 307.751H210.368M153.771 307.751V359.869M210.368 307.751H266.965M210.368 307.751V359.869M266.965 307.751H323.562M266.965 307.751V359.869M323.562 307.751H381.824M323.562 307.751V359.869M381.824 307.751H438.421M381.824 307.751V359.869M438.421 307.751H495.018M438.421 307.751V359.869M495.018 307.751H553.279M495.018 307.751V359.869M553.279 307.751H609.876M553.279 307.751V359.869M609.876 307.751H666.474M609.876 307.751V359.869M666.474 307.751H723.071M666.474 307.751V359.869M723.071 307.751V359.869M-304 359.869H-245.738M-304 359.869V410.498M-245.738 359.869H-189.141M-245.738 359.869V410.498M-189.141 359.869H-132.544M-189.141 359.869V410.498M-132.544 359.869H-74.2824M-132.544 359.869V410.498M-74.2824 359.869H-17.6853M-74.2824 359.869V410.498M-17.6853 359.869H38.9118M-17.6853 359.869V410.498M38.9118 359.869H95.5088M38.9118 359.869V410.498M95.5088 359.869H153.771M95.5088 359.869V410.498M153.771 359.869H210.368M153.771 359.869V410.498M210.368 359.869H266.965M210.368 359.869V410.498M266.965 359.869H323.562M266.965 359.869V410.498M323.562 359.869H381.824M323.562 359.869V410.498M381.824 359.869H438.421M381.824 359.869V410.498M438.421 359.869H495.018M438.421 359.869V410.498M495.018 359.869H553.279M495.018 359.869V410.498M553.279 359.869H609.876M553.279 359.869V410.498M609.876 359.869H666.474M609.876 359.869V410.498M666.474 359.869H723.071M666.474 359.869V410.498M723.071 359.869V410.498M-304 410.498H-245.738M-304 410.498V461.127M-245.738 410.498H-189.141M-245.738 410.498V461.127M-189.141 410.498H-132.544M-189.141 410.498V461.127M-132.544 410.498H-74.2824M-132.544 410.498V461.127M-74.2824 410.498H-17.6853M-74.2824 410.498V461.127M-17.6853 410.498H38.9118M-17.6853 410.498V461.127M38.9118 410.498H95.5088M38.9118 410.498V461.127M95.5088 410.498H153.771M95.5088 410.498V461.127M153.771 410.498H210.368M153.771 410.498V461.127M210.368 410.498H266.965M210.368 410.498V461.127M266.965 410.498H323.562M266.965 410.498V461.127M323.562 410.498H381.824M323.562 410.498V461.127M381.824 410.498H438.421M381.824 410.498V461.127M438.421 410.498H495.018M438.421 410.498V461.127M495.018 410.498H553.279M495.018 410.498V461.127M553.279 410.498H609.876M553.279 410.498V461.127M609.876 410.498H666.474M609.876 410.498V461.127M666.474 410.498H723.071M666.474 410.498V461.127M723.071 410.498V461.127M-304 461.127H-245.738M-304 461.127V511.756M-245.738 461.127H-189.141M-245.738 461.127V511.756M-189.141 461.127H-132.544M-189.141 461.127V511.756M-132.544 461.127H-74.2824M-132.544 461.127V511.756M-74.2824 461.127H-17.6853M-74.2824 461.127V511.756M-17.6853 461.127H38.9118M-17.6853 461.127V511.756M38.9118 461.127H95.5088M38.9118 461.127V511.756M95.5088 461.127H153.771M95.5088 461.127V511.756M153.771 461.127H210.368M153.771 461.127V511.756M210.368 461.127H266.965M210.368 461.127V511.756M266.965 461.127H323.562M266.965 461.127V511.756M323.562 461.127H381.824M323.562 461.127V511.756M381.824 461.127H438.421M381.824 461.127V511.756M438.421 461.127H495.018M438.421 461.127V511.756M495.018 461.127H553.279M495.018 461.127V511.756M553.279 461.127H609.876M553.279 461.127V511.756M609.876 461.127H666.474M609.876 461.127V511.756M666.474 461.127H723.071M666.474 461.127V511.756M723.071 461.127V511.756M-304 511.756H-245.738M-304 511.756V563.874M-245.738 511.756H-189.141M-245.738 511.756V563.874M-189.141 511.756H-132.544M-189.141 511.756V563.874M-132.544 511.756H-74.2824M-132.544 511.756V563.874M-74.2824 511.756H-17.6853M-74.2824 511.756V563.874M-17.6853 511.756H38.9118M-17.6853 511.756V563.874M38.9118 511.756H95.5088M38.9118 511.756V563.874M95.5088 511.756H153.771M95.5088 511.756V563.874M153.771 511.756H210.368M153.771 511.756V563.874M210.368 511.756H266.965M210.368 511.756V563.874M266.965 511.756H323.562M266.965 511.756V563.874M323.562 511.756H381.824M323.562 511.756V563.874M381.824 511.756H438.421M381.824 511.756V563.874M438.421 511.756H495.018M438.421 511.756V563.874M495.018 511.756H553.279M495.018 511.756V563.874M553.279 511.756H609.876M553.279 511.756V563.874M609.876 511.756H666.474M609.876 511.756V563.874M666.474 511.756H723.071M666.474 511.756V563.874M723.071 511.756V563.874M-304 563.874H-245.738M-304 563.874V614.503M-245.738 563.874H-189.141M-245.738 563.874V614.503M-189.141 563.874H-132.544M-189.141 563.874V614.503M-132.544 563.874H-74.2824M-132.544 563.874V614.503M-74.2824 563.874H-17.6853M-74.2824 563.874V614.503M-17.6853 563.874H38.9118M-17.6853 563.874V614.503M38.9118 563.874H95.5088M38.9118 563.874V614.503M95.5088 563.874H153.771M95.5088 563.874V614.503M153.771 563.874H210.368M153.771 563.874V614.503M210.368 563.874H266.965M210.368 563.874V614.503M266.965 563.874H323.562M266.965 563.874V614.503M323.562 563.874H381.824M323.562 563.874V614.503M381.824 563.874H438.421M381.824 563.874V614.503M438.421 563.874H495.018M438.421 563.874V614.503M495.018 563.874H553.279M495.018 563.874V614.503M553.279 563.874H609.876M553.279 563.874V614.503M609.876 563.874H666.474M609.876 563.874V614.503M666.474 563.874H723.071M666.474 563.874V614.503M723.071 563.874V614.503M-304 614.503H-245.738M-304 614.503V665.132M-245.738 614.503H-189.141M-245.738 614.503V665.132M-189.141 614.503H-132.544M-189.141 614.503V665.132M-132.544 614.503H-74.2824M-132.544 614.503V665.132M-74.2824 614.503H-17.6853M-74.2824 614.503V665.132M-17.6853 614.503H38.9118M-17.6853 614.503V665.132M38.9118 614.503H95.5088M38.9118 614.503V665.132M95.5088 614.503H153.771M95.5088 614.503V665.132M153.771 614.503H210.368M153.771 614.503V665.132M210.368 614.503H266.965M210.368 614.503V665.132M266.965 614.503H323.562M266.965 614.503V665.132M323.562 614.503H381.824M323.562 614.503V665.132M381.824 614.503H438.421M381.824 614.503V665.132M438.421 614.503H495.018M438.421 614.503V665.132M495.018 614.503H553.279M495.018 614.503V665.132M553.279 614.503H609.876M553.279 614.503V665.132M609.876 614.503H666.474M609.876 614.503V665.132M666.474 614.503H723.071M666.474 614.503V665.132M723.071 614.503V665.132M-304 665.132H-245.738M-304 665.132V717.25M-245.738 665.132H-189.141M-245.738 665.132V717.25M-189.141 665.132H-132.544M-189.141 665.132V717.25M-132.544 665.132H-74.2824M-132.544 665.132V717.25M-74.2824 665.132H-17.6853M-74.2824 665.132V717.25M-17.6853 665.132H38.9118M-17.6853 665.132V717.25M38.9118 665.132H95.5088M38.9118 665.132V717.25M95.5088 665.132H153.771M95.5088 665.132V717.25M153.771 665.132H210.368M153.771 665.132V717.25M210.368 665.132H266.965M210.368 665.132V717.25M266.965 665.132H323.562M266.965 665.132V717.25M323.562 665.132H381.824M323.562 665.132V717.25M381.824 665.132H438.421M381.824 665.132V717.25M438.421 665.132H495.018M438.421 665.132V717.25M495.018 665.132H553.279M495.018 665.132V717.25M553.279 665.132H609.876M553.279 665.132V717.25M609.876 665.132H666.474M609.876 665.132V717.25M666.474 665.132H723.071M666.474 665.132V717.25M723.071 665.132V717.25M-304 717.25H-245.738M-304 717.25V767.879M-245.738 717.25H-189.141M-245.738 717.25V767.879M-189.141 717.25H-132.544M-189.141 717.25V767.879M-132.544 717.25H-74.2824M-132.544 717.25V767.879M-74.2824 717.25H-17.6853M-74.2824 717.25V767.879M-17.6853 717.25H38.9118M-17.6853 717.25V767.879M38.9118 717.25H95.5088M38.9118 717.25V767.879M95.5088 717.25H153.771M95.5088 717.25V767.879M153.771 717.25H210.368M153.771 717.25V767.879M210.368 717.25H266.965M210.368 717.25V767.879M266.965 717.25H323.562M266.965 717.25V767.879M323.562 717.25H381.824M323.562 717.25V767.879M381.824 717.25H438.421M381.824 717.25V767.879M438.421 717.25H495.018M438.421 717.25V767.879M495.018 717.25H553.279M495.018 717.25V767.879M553.279 717.25H609.876M553.279 717.25V767.879M609.876 717.25H666.474M609.876 717.25V767.879M666.474 717.25H723.071M666.474 717.25V767.879M723.071 717.25V767.879M-304 767.879H-245.738M-304 767.879V818.508M-245.738 767.879H-189.141M-245.738 767.879V818.508M-189.141 767.879H-132.544M-189.141 767.879V818.508M-132.544 767.879H-74.2824M-132.544 767.879V818.508M-74.2824 767.879H-17.6853M-74.2824 767.879V818.508M-17.6853 767.879H38.9118M-17.6853 767.879V818.508M38.9118 767.879H95.5088M38.9118 767.879V818.508M95.5088 767.879H153.771M95.5088 767.879V818.508M153.771 767.879H210.368M153.771 767.879V818.508M210.368 767.879H266.965M210.368 767.879V818.508M266.965 767.879H323.562M266.965 767.879V818.508M323.562 767.879H381.824M323.562 767.879V818.508M381.824 767.879H438.421M381.824 767.879V818.508M438.421 767.879H495.018M438.421 767.879V818.508M495.018 767.879H553.279M495.018 767.879V818.508M553.279 767.879H609.876M553.279 767.879V818.508M609.876 767.879H666.474M609.876 767.879V818.508M666.474 767.879H723.071M666.474 767.879V818.508M723.071 767.879V818.508M-304 818.508H-245.738M-304 818.508V869.136M-245.738 818.508H-189.141M-245.738 818.508V869.136M-189.141 818.508H-132.544M-189.141 818.508V869.136M-132.544 818.508H-74.2824M-132.544 818.508V869.136M-74.2824 818.508H-17.6853M-74.2824 818.508V869.136M-17.6853 818.508H38.9118M-17.6853 818.508V869.136M38.9118 818.508H95.5088M38.9118 818.508V869.136M95.5088 818.508H153.771M95.5088 818.508V869.136M153.771 818.508H210.368M153.771 818.508V869.136M210.368 818.508H266.965M210.368 818.508V869.136M266.965 818.508H323.562M266.965 818.508V869.136M323.562 818.508H381.824M323.562 818.508V869.136M381.824 818.508H438.421M381.824 818.508V869.136M438.421 818.508H495.018M438.421 818.508V869.136M495.018 818.508H553.279M495.018 818.508V869.136M553.279 818.508H609.876M553.279 818.508V869.136M609.876 818.508H666.474M609.876 818.508V869.136M666.474 818.508H723.071M666.474 818.508V869.136M723.071 818.508V869.136M-304 869.136H-245.738M-304 869.136V921.254M-245.738 869.136H-189.141M-245.738 869.136V921.254M-189.141 869.136H-132.544M-189.141 869.136V921.254M-132.544 869.136H-74.2824M-132.544 869.136V921.254M-74.2824 869.136H-17.6853M-74.2824 869.136V921.254M-17.6853 869.136H38.9118M-17.6853 869.136V921.254M38.9118 869.136H95.5088M38.9118 869.136V921.254M95.5088 869.136H153.771M95.5088 869.136V921.254M153.771 869.136H210.368M153.771 869.136V921.254M210.368 869.136H266.965M210.368 869.136V921.254M266.965 869.136H323.562M266.965 869.136V921.254M323.562 869.136H381.824M323.562 869.136V921.254M381.824 869.136H438.421M381.824 869.136V921.254M438.421 869.136H495.018M438.421 869.136V921.254M495.018 869.136H553.279M495.018 869.136V921.254M553.279 869.136H609.876M553.279 869.136V921.254M609.876 869.136H666.474M609.876 869.136V921.254M666.474 869.136H723.071M666.474 869.136V921.254M723.071 869.136V921.254M-304 921.254H-245.738M-304 921.254V971.883M-245.738 921.254H-189.141M-245.738 921.254V971.883M-189.141 921.254H-132.544M-189.141 921.254V971.883M-132.544 921.254H-74.2824M-132.544 921.254V971.883M-74.2824 921.254H-17.6853M-74.2824 921.254V971.883M-17.6853 921.254H38.9118M-17.6853 921.254V971.883M38.9118 921.254H95.5088M38.9118 921.254V971.883M95.5088 921.254H153.771M95.5088 921.254V971.883M153.771 921.254H210.368M153.771 921.254V971.883M210.368 921.254H266.965M210.368 921.254V971.883M266.965 921.254H323.562M266.965 921.254V971.883M323.562 921.254H381.824M323.562 921.254V971.883M381.824 921.254H438.421M381.824 921.254V971.883M438.421 921.254H495.018M438.421 921.254V971.883M495.018 921.254H553.279M495.018 921.254V971.883M553.279 921.254H609.876M553.279 921.254V971.883M609.876 921.254H666.474M609.876 921.254V971.883M666.474 921.254H723.071M666.474 921.254V971.883M723.071 921.254V971.883M-304 971.883H-245.738M-304 971.883V1022.51M-245.738 971.883H-189.141M-245.738 971.883V1022.51M-189.141 971.883H-132.544M-189.141 971.883V1022.51M-132.544 971.883H-74.2824M-132.544 971.883V1022.51M-74.2824 971.883H-17.6853M-74.2824 971.883V1022.51M-17.6853 971.883H38.9118M-17.6853 971.883V1022.51M38.9118 971.883H95.5088M38.9118 971.883V1022.51M95.5088 971.883H153.771M95.5088 971.883V1022.51M153.771 971.883H210.368M153.771 971.883V1022.51M210.368 971.883H266.965M210.368 971.883V1022.51M266.965 971.883H323.562M266.965 971.883V1022.51M323.562 971.883H381.824M323.562 971.883V1022.51M381.824 971.883H438.421M381.824 971.883V1022.51M438.421 971.883H495.018M438.421 971.883V1022.51M495.018 971.883H553.279M495.018 971.883V1022.51M553.279 971.883H609.876M553.279 971.883V1022.51M609.876 971.883H666.474M609.876 971.883V1022.51M666.474 971.883H723.071M666.474 971.883V1022.51M723.071 971.883V1022.51M-304 1022.51H-245.738M-304 1022.51V1074.63M-245.738 1022.51H-189.141M-245.738 1022.51V1074.63M-189.141 1022.51H-132.544M-189.141 1022.51V1074.63M-132.544 1022.51H-74.2824M-132.544 1022.51V1074.63M-74.2824 1022.51H-17.6853M-74.2824 1022.51V1074.63M-17.6853 1022.51H38.9118M-17.6853 1022.51V1074.63M38.9118 1022.51H95.5088M38.9118 1022.51V1074.63M95.5088 1022.51H153.771M95.5088 1022.51V1074.63M153.771 1022.51H210.368M153.771 1022.51V1074.63M210.368 1022.51H266.965M210.368 1022.51V1074.63M266.965 1022.51H323.562M266.965 1022.51V1074.63M323.562 1022.51H381.824M323.562 1022.51V1074.63M381.824 1022.51H438.421M381.824 1022.51V1074.63M438.421 1022.51H495.018M438.421 1022.51V1074.63M495.018 1022.51H553.279M495.018 1022.51V1074.63M553.279 1022.51H609.876M553.279 1022.51V1074.63M609.876 1022.51H666.474M609.876 1022.51V1074.63M666.474 1022.51H723.071M666.474 1022.51V1074.63M723.071 1022.51V1074.63M-304 1074.63H-245.738M-304 1074.63V1125.26M-245.738 1074.63H-189.141M-245.738 1074.63V1125.26M-189.141 1074.63H-132.544M-189.141 1074.63V1125.26M-132.544 1074.63H-74.2824M-132.544 1074.63V1125.26M-74.2824 1074.63H-17.6853M-74.2824 1074.63V1125.26M-17.6853 1074.63H38.9118M-17.6853 1074.63V1125.26M38.9118 1074.63H95.5088M38.9118 1074.63V1125.26M95.5088 1074.63H153.771M95.5088 1074.63V1125.26M153.771 1074.63H210.368M153.771 1074.63V1125.26M210.368 1074.63H266.965M210.368 1074.63V1125.26M266.965 1074.63H323.562M266.965 1074.63V1125.26M323.562 1074.63H381.824M323.562 1074.63V1125.26M381.824 1074.63H438.421M381.824 1074.63V1125.26M438.421 1074.63H495.018M438.421 1074.63V1125.26M495.018 1074.63H553.279M495.018 1074.63V1125.26M553.279 1074.63H609.876M553.279 1074.63V1125.26M609.876 1074.63H666.474M609.876 1074.63V1125.26M666.474 1074.63H723.071M666.474 1074.63V1125.26M723.071 1074.63V1125.26M-304 1125.26H-245.738M-304 1125.26V1175.89M-245.738 1125.26H-189.141M-245.738 1125.26V1175.89M-189.141 1125.26H-132.544M-189.141 1125.26V1175.89M-132.544 1125.26H-74.2824M-132.544 1125.26V1175.89M-74.2824 1125.26H-17.6853M-74.2824 1125.26V1175.89M-17.6853 1125.26H38.9118M-17.6853 1125.26V1175.89M38.9118 1125.26H95.5088M38.9118 1125.26V1175.89M95.5088 1125.26H153.771M95.5088 1125.26V1175.89M153.771 1125.26H210.368M153.771 1125.26V1175.89M210.368 1125.26H266.965M210.368 1125.26V1175.89M266.965 1125.26H323.562M266.965 1125.26V1175.89M323.562 1125.26H381.824M323.562 1125.26V1175.89M381.824 1125.26H438.421M381.824 1125.26V1175.89M438.421 1125.26H495.018M438.421 1125.26V1175.89M495.018 1125.26H553.279M495.018 1125.26V1175.89M553.279 1125.26H609.876M553.279 1125.26V1175.89M609.876 1125.26H666.474M609.876 1125.26V1175.89M666.474 1125.26H723.071M666.474 1125.26V1175.89M723.071 1125.26V1175.89M-304 1175.89H-245.738M-304 1175.89V1228.01M-245.738 1175.89H-189.141M-245.738 1175.89V1228.01M-189.141 1175.89H-132.544M-189.141 1175.89V1228.01M-132.544 1175.89H-74.2824M-132.544 1175.89V1228.01M-74.2824 1175.89H-17.6853M-74.2824 1175.89V1228.01M-17.6853 1175.89H38.9118M-17.6853 1175.89V1228.01M38.9118 1175.89H95.5088M38.9118 1175.89V1228.01M95.5088 1175.89H153.771M95.5088 1175.89V1228.01M153.771 1175.89H210.368M153.771 1175.89V1228.01M210.368 1175.89H266.965M210.368 1175.89V1228.01M266.965 1175.89H323.562M266.965 1175.89V1228.01M323.562 1175.89H381.824M323.562 1175.89V1228.01M381.824 1175.89H438.421M381.824 1175.89V1228.01M438.421 1175.89H495.018M438.421 1175.89V1228.01M495.018 1175.89H553.279M495.018 1175.89V1228.01M553.279 1175.89H609.876M553.279 1175.89V1228.01M609.876 1175.89H666.474M609.876 1175.89V1228.01M666.474 1175.89H723.071M666.474 1175.89V1228.01M723.071 1175.89V1228.01M-304 1228.01H-245.738M-304 1228.01V1278.63M-245.738 1228.01H-189.141M-245.738 1228.01V1278.63M-189.141 1228.01H-132.544M-189.141 1228.01V1278.63M-132.544 1228.01H-74.2824M-132.544 1228.01V1278.63M-74.2824 1228.01H-17.6853M-74.2824 1228.01V1278.63M-17.6853 1228.01H38.9118M-17.6853 1228.01V1278.63M38.9118 1228.01H95.5088M38.9118 1228.01V1278.63M95.5088 1228.01H153.771M95.5088 1228.01V1278.63M153.771 1228.01H210.368M153.771 1228.01V1278.63M210.368 1228.01H266.965M210.368 1228.01V1278.63M266.965 1228.01H323.562M266.965 1228.01V1278.63M323.562 1228.01H381.824M323.562 1228.01V1278.63M381.824 1228.01H438.421M381.824 1228.01V1278.63M438.421 1228.01H495.018M438.421 1228.01V1278.63M495.018 1228.01H553.279M495.018 1228.01V1278.63M553.279 1228.01H609.876M553.279 1228.01V1278.63M609.876 1228.01H666.474M609.876 1228.01V1278.63M666.474 1228.01H723.071M666.474 1228.01V1278.63M723.071 1228.01V1278.63M-304 1278.63H-245.738M-304 1278.63V1329.26M-245.738 1278.63H-189.141M-245.738 1278.63V1329.26M-189.141 1278.63H-132.544M-189.141 1278.63V1329.26M-132.544 1278.63H-74.2824M-132.544 1278.63V1329.26M-74.2824 1278.63H-17.6853M-74.2824 1278.63V1329.26M-17.6853 1278.63H38.9118M-17.6853 1278.63V1329.26M38.9118 1278.63H95.5088M38.9118 1278.63V1329.26M95.5088 1278.63H153.771M95.5088 1278.63V1329.26M153.771 1278.63H210.368M153.771 1278.63V1329.26M210.368 1278.63H266.965M210.368 1278.63V1329.26M266.965 1278.63H323.562M266.965 1278.63V1329.26M323.562 1278.63H381.824M323.562 1278.63V1329.26M381.824 1278.63H438.421M381.824 1278.63V1329.26M438.421 1278.63H495.018M438.421 1278.63V1329.26M495.018 1278.63H553.279M495.018 1278.63V1329.26M553.279 1278.63H609.876M553.279 1278.63V1329.26M609.876 1278.63H666.474M609.876 1278.63V1329.26M666.474 1278.63H723.071M666.474 1278.63V1329.26M723.071 1278.63V1329.26M-304 1329.26H-245.738M-304 1329.26V1379.89M-245.738 1329.26H-189.141M-245.738 1329.26V1379.89M-189.141 1329.26H-132.544M-189.141 1329.26V1379.89M-132.544 1329.26H-74.2824M-132.544 1329.26V1379.89M-74.2824 1329.26H-17.6853M-74.2824 1329.26V1379.89M-17.6853 1329.26H38.9118M-17.6853 1329.26V1379.89M38.9118 1329.26H95.5088M38.9118 1329.26V1379.89M95.5088 1329.26H153.771M95.5088 1329.26V1379.89M153.771 1329.26H210.368M153.771 1329.26V1379.89M210.368 1329.26H266.965M210.368 1329.26V1379.89M266.965 1329.26H323.562M266.965 1329.26V1379.89M323.562 1329.26H381.824M323.562 1329.26V1379.89M381.824 1329.26H438.421M381.824 1329.26V1379.89M438.421 1329.26H495.018M438.421 1329.26V1379.89M495.018 1329.26H553.279M495.018 1329.26V1379.89M553.279 1329.26H609.876M553.279 1329.26V1379.89M609.876 1329.26H666.474M609.876 1329.26V1379.89M666.474 1329.26H723.071M666.474 1329.26V1379.89M723.071 1329.26V1379.89M-304 1379.89H-245.738M-304 1379.89V1432.01M-245.738 1379.89H-189.141M-245.738 1379.89V1432.01M-189.141 1379.89H-132.544M-189.141 1379.89V1432.01M-132.544 1379.89H-74.2824M-132.544 1379.89V1432.01M-74.2824 1379.89H-17.6853M-74.2824 1379.89V1432.01M-17.6853 1379.89H38.9118M-17.6853 1379.89V1432.01M38.9118 1379.89H95.5088M38.9118 1379.89V1432.01M95.5088 1379.89H153.771M95.5088 1379.89V1432.01M153.771 1379.89H210.368M153.771 1379.89V1432.01M210.368 1379.89H266.965M210.368 1379.89V1432.01M266.965 1379.89H323.562M266.965 1379.89V1432.01M323.562 1379.89H381.824M323.562 1379.89V1432.01M381.824 1379.89H438.421M381.824 1379.89V1432.01M438.421 1379.89H495.018M438.421 1379.89V1432.01M495.018 1379.89H553.279M495.018 1379.89V1432.01M553.279 1379.89H609.876M553.279 1379.89V1432.01M609.876 1379.89H666.474M609.876 1379.89V1432.01M666.474 1379.89H723.071M666.474 1379.89V1432.01M723.071 1379.89V1432.01M-304 1432.01H-245.738M-304 1432.01V1482.64M-245.738 1432.01H-189.141M-245.738 1432.01V1482.64M-189.141 1432.01H-132.544M-189.141 1432.01V1482.64M-132.544 1432.01H-74.2824M-132.544 1432.01V1482.64M-74.2824 1432.01H-17.6853M-74.2824 1432.01V1482.64M-17.6853 1432.01H38.9118M-17.6853 1432.01V1482.64M38.9118 1432.01H95.5088M38.9118 1432.01V1482.64M95.5088 1432.01H153.771M95.5088 1432.01V1482.64M153.771 1432.01H210.368M153.771 1432.01V1482.64M210.368 1432.01H266.965M210.368 1432.01V1482.64M266.965 1432.01H323.562M266.965 1432.01V1482.64M323.562 1432.01H381.824M323.562 1432.01V1482.64M381.824 1432.01H438.421M381.824 1432.01V1482.64M438.421 1432.01H495.018M438.421 1432.01V1482.64M495.018 1432.01H553.279M495.018 1432.01V1482.64M553.279 1432.01H609.876M553.279 1432.01V1482.64M609.876 1432.01H666.474M609.876 1432.01V1482.64M666.474 1432.01H723.071M666.474 1432.01V1482.64M723.071 1432.01V1482.64M-304 1482.64H-245.738M-304 1482.64V1533.27M-245.738 1482.64H-189.141M-245.738 1482.64V1533.27M-189.141 1482.64H-132.544M-189.141 1482.64V1533.27M-132.544 1482.64H-74.2824M-132.544 1482.64V1533.27M-74.2824 1482.64H-17.6853M-74.2824 1482.64V1533.27M-17.6853 1482.64H38.9118M-17.6853 1482.64V1533.27M38.9118 1482.64H95.5088M38.9118 1482.64V1533.27M95.5088 1482.64H153.771M95.5088 1482.64V1533.27M153.771 1482.64H210.368M153.771 1482.64V1533.27M210.368 1482.64H266.965M210.368 1482.64V1533.27M266.965 1482.64H323.562M266.965 1482.64V1533.27M323.562 1482.64H381.824M323.562 1482.64V1533.27M381.824 1482.64H438.421M381.824 1482.64V1533.27M438.421 1482.64H495.018M438.421 1482.64V1533.27M495.018 1482.64H553.279M495.018 1482.64V1533.27M553.279 1482.64H609.876M553.279 1482.64V1533.27M609.876 1482.64H666.474M609.876 1482.64V1533.27M666.474 1482.64H723.071M666.474 1482.64V1533.27M723.071 1482.64V1533.27M-304 1533.27H-245.738M-304 1533.27V1585.39M-245.738 1533.27H-189.141M-245.738 1533.27V1585.39M-189.141 1533.27H-132.544M-189.141 1533.27V1585.39M-132.544 1533.27H-74.2824M-132.544 1533.27V1585.39M-74.2824 1533.27H-17.6853M-74.2824 1533.27V1585.39M-17.6853 1533.27H38.9118M-17.6853 1533.27V1585.39M38.9118 1533.27H95.5088M38.9118 1533.27V1585.39M95.5088 1533.27H153.771M95.5088 1533.27V1585.39M153.771 1533.27H210.368M153.771 1533.27V1585.39M210.368 1533.27H266.965M210.368 1533.27V1585.39M266.965 1533.27H323.562M266.965 1533.27V1585.39M323.562 1533.27H381.824M323.562 1533.27V1585.39M381.824 1533.27H438.421M381.824 1533.27V1585.39M438.421 1533.27H495.018M438.421 1533.27V1585.39M495.018 1533.27H553.279M495.018 1533.27V1585.39M553.279 1533.27H609.876M553.279 1533.27V1585.39M609.876 1533.27H666.474M609.876 1533.27V1585.39M666.474 1533.27H723.071M666.474 1533.27V1585.39M723.071 1533.27V1585.39M-304 1585.39H-245.738M-304 1585.39V1636.02M-245.738 1585.39H-189.141M-245.738 1585.39V1636.02M-189.141 1585.39H-132.544M-189.141 1585.39V1636.02M-132.544 1585.39H-74.2824M-132.544 1585.39V1636.02M-74.2824 1585.39H-17.6853M-74.2824 1585.39V1636.02M-17.6853 1585.39H38.9118M-17.6853 1585.39V1636.02M38.9118 1585.39H95.5088M38.9118 1585.39V1636.02M95.5088 1585.39H153.771M95.5088 1585.39V1636.02M153.771 1585.39H210.368M153.771 1585.39V1636.02M210.368 1585.39H266.965M210.368 1585.39V1636.02M266.965 1585.39H323.562M266.965 1585.39V1636.02M323.562 1585.39H381.824M323.562 1585.39V1636.02M381.824 1585.39H438.421M381.824 1585.39V1636.02M438.421 1585.39H495.018M438.421 1585.39V1636.02M495.018 1585.39H553.279M495.018 1585.39V1636.02M553.279 1585.39H609.876M553.279 1585.39V1636.02M609.876 1585.39H666.474M609.876 1585.39V1636.02M666.474 1585.39H723.071M666.474 1585.39V1636.02M723.071 1585.39V1636.02M-304 1636.02H-245.738M-304 1636.02V1686.64M-245.738 1636.02H-189.141M-245.738 1636.02V1686.64M-189.141 1636.02H-132.544M-189.141 1636.02V1686.64M-132.544 1636.02H-74.2824M-132.544 1636.02V1686.64M-74.2824 1636.02H-17.6853M-74.2824 1636.02V1686.64M-17.6853 1636.02H38.9118M-17.6853 1636.02V1686.64M38.9118 1636.02H95.5088M38.9118 1636.02V1686.64M95.5088 1636.02H153.771M95.5088 1636.02V1686.64M153.771 1636.02H210.368M153.771 1636.02V1686.64M210.368 1636.02H266.965M210.368 1636.02V1686.64M266.965 1636.02H323.562M266.965 1636.02V1686.64M323.562 1636.02H381.824M323.562 1636.02V1686.64M381.824 1636.02H438.421M381.824 1636.02V1686.64M438.421 1636.02H495.018M438.421 1636.02V1686.64M495.018 1636.02H553.279M495.018 1636.02V1686.64M553.279 1636.02H609.876M553.279 1636.02V1686.64M609.876 1636.02H666.474M609.876 1636.02V1686.64M666.474 1636.02H723.071M666.474 1636.02V1686.64M723.071 1636.02V1686.64M-304 1686.64H-245.738M-304 1686.64V1738.76M-245.738 1686.64H-189.141M-245.738 1686.64V1738.76M-189.141 1686.64H-132.544M-189.141 1686.64V1738.76M-132.544 1686.64H-74.2824M-132.544 1686.64V1738.76M-74.2824 1686.64H-17.6853M-74.2824 1686.64V1738.76M-17.6853 1686.64H38.9118M-17.6853 1686.64V1738.76M38.9118 1686.64H95.5088M38.9118 1686.64V1738.76M95.5088 1686.64H153.771M95.5088 1686.64V1738.76M153.771 1686.64H210.368M153.771 1686.64V1738.76M210.368 1686.64H266.965M210.368 1686.64V1738.76M266.965 1686.64H323.562M266.965 1686.64V1738.76M323.562 1686.64H381.824M323.562 1686.64V1738.76M381.824 1686.64H438.421M381.824 1686.64V1738.76M438.421 1686.64H495.018M438.421 1686.64V1738.76M495.018 1686.64H553.279M495.018 1686.64V1738.76M553.279 1686.64H609.876M553.279 1686.64V1738.76M609.876 1686.64H666.474M609.876 1686.64V1738.76M666.474 1686.64H723.071M666.474 1686.64V1738.76M723.071 1686.64V1738.76M-304 1738.76H-245.738M-304 1738.76V1789.39M-245.738 1738.76H-189.141M-245.738 1738.76V1789.39M-189.141 1738.76H-132.544M-189.141 1738.76V1789.39M-132.544 1738.76H-74.2824M-132.544 1738.76V1789.39M-74.2824 1738.76H-17.6853M-74.2824 1738.76V1789.39M-17.6853 1738.76H38.9118M-17.6853 1738.76V1789.39M38.9118 1738.76H95.5088M38.9118 1738.76V1789.39M95.5088 1738.76H153.771M95.5088 1738.76V1789.39M153.771 1738.76H210.368M153.771 1738.76V1789.39M210.368 1738.76H266.965M210.368 1738.76V1789.39M266.965 1738.76H323.562M266.965 1738.76V1789.39M323.562 1738.76H381.824M323.562 1738.76V1789.39M381.824 1738.76H438.421M381.824 1738.76V1789.39M438.421 1738.76H495.018M438.421 1738.76V1789.39M495.018 1738.76H553.279M495.018 1738.76V1789.39M553.279 1738.76H609.876M553.279 1738.76V1789.39M609.876 1738.76H666.474M609.876 1738.76V1789.39M666.474 1738.76H723.071M666.474 1738.76V1789.39M723.071 1738.76V1789.39M-304 1789.39H-245.738M-304 1789.39V1840.02M-245.738 1789.39H-189.141M-245.738 1789.39V1840.02M-189.141 1789.39H-132.544M-189.141 1789.39V1840.02M-132.544 1789.39H-74.2824M-132.544 1789.39V1840.02M-74.2824 1789.39H-17.6853M-74.2824 1789.39V1840.02M-17.6853 1789.39H38.9118M-17.6853 1789.39V1840.02M38.9118 1789.39H95.5088M38.9118 1789.39V1840.02M95.5088 1789.39H153.771M95.5088 1789.39V1840.02M153.771 1789.39H210.368M153.771 1789.39V1840.02M210.368 1789.39H266.965M210.368 1789.39V1840.02M266.965 1789.39H323.562M266.965 1789.39V1840.02M323.562 1789.39H381.824M323.562 1789.39V1840.02M381.824 1789.39H438.421M381.824 1789.39V1840.02M438.421 1789.39H495.018M438.421 1789.39V1840.02M495.018 1789.39H553.279M495.018 1789.39V1840.02M553.279 1789.39H609.876M553.279 1789.39V1840.02M609.876 1789.39H666.474M609.876 1789.39V1840.02M666.474 1789.39H723.071M666.474 1789.39V1840.02M723.071 1789.39V1840.02M-304 1840.02H-245.738M-304 1840.02V1890.65H-245.738M-245.738 1840.02H-189.141M-245.738 1840.02V1890.65M-189.141 1840.02H-132.544M-189.141 1840.02V1890.65M-132.544 1840.02H-74.2824M-132.544 1840.02V1890.65M-74.2824 1840.02H-17.6853M-74.2824 1840.02V1890.65M-17.6853 1840.02H38.9118M-17.6853 1840.02V1890.65M38.9118 1840.02H95.5088M38.9118 1840.02V1890.65M95.5088 1840.02H153.771M95.5088 1840.02V1890.65M153.771 1840.02H210.368M153.771 1840.02V1890.65M210.368 1840.02H266.965M210.368 1840.02V1890.65M266.965 1840.02H323.562M266.965 1840.02V1890.65M323.562 1840.02H381.824M323.562 1840.02V1890.65M381.824 1840.02H438.421M381.824 1840.02V1890.65M438.421 1840.02H495.018M438.421 1840.02V1890.65M495.018 1840.02H553.279M495.018 1840.02V1890.65M553.279 1840.02H609.876M553.279 1840.02V1890.65M609.876 1840.02H666.474M609.876 1840.02V1890.65M666.474 1840.02H723.071M666.474 1840.02V1890.65M723.071 1840.02V1890.65M-245.738 1890.65H-189.141M-189.141 1890.65H-132.544M-132.544 1890.65H-74.2824M-74.2824 1890.65H-17.6853M-17.6853 1890.65H38.9118M38.9118 1890.65H95.5088M95.5088 1890.65H153.771M153.771 1890.65H210.368M210.368 1890.65H266.965M266.965 1890.65H323.562M323.562 1890.65H381.824M381.824 1890.65H438.421M438.421 1890.65H495.018M495.018 1890.65H553.279M553.279 1890.65H609.876M609.876 1890.65H666.474M666.474 1890.65H723.071" stroke="url(#paint0_radial_79_1830)"/>
<defs>
<radialGradient id="paint0_radial_79_1830" cx="0" cy="0" r="1" gradientUnits="userSpaceOnUse" gradientTransform="translate(694.079 369.548) rotate(89.7421) scale(475.848 548.279)">
<stop offset="0.57" stop-color="#202BAC"/>
<stop offset="1" stop-opacity="0"/>
<stop offset="1" stop-opacity="0"/>
</radialGradient>
</defs>
</svg>
